<?xml version="1.0" encoding="utf-8"?>
<!-- Generator: Adobe Illustrator 26.3.0, SVG Export Plug-In . SVG Version: 6.00 Build 0)  -->
<svg version="1.1" id="Camada_2_00000009550458550131223540000013387233941990346373_"
	 xmlns="http://www.w3.org/2000/svg" xmlns:xlink="http://www.w3.org/1999/xlink" x="0px" y="0px" viewBox="0 0 834.3 168.8"
	 style="enable-background:new 0 0 834.3 168.8;" xml:space="preserve">
<style type="text/css">
	.st0{enable-background:new    ;}
	.st1{fill:#FFFFFF;stroke:#FFFFFF;stroke-miterlimit:10;}
	.st2{fill:#FFFFFF;stroke:#FFFFFF;stroke-width:2;stroke-miterlimit:10;}
</style>
<g id="Camada_1-2">
	<g>
		<g class="st0">
			<path class="st1" d="M415.5,130.8c-1.2,0-2.3-0.2-3.4-0.6c-1-0.4-1.9-1-2.7-1.7c-0.8-0.7-1.3-1.6-1.8-2.6c-0.4-1-0.6-2.1-0.6-3.3
				s0.2-2.3,0.6-3.3c0.4-1,1-1.9,1.8-2.6s1.7-1.3,2.7-1.7c1-0.4,2.1-0.6,3.4-0.6c1.2,0,2.3,0.2,3.3,0.6s1.9,1,2.6,1.8l-1.1,1.1
				c-0.7-0.7-1.4-1.2-2.2-1.5s-1.7-0.4-2.6-0.4c-1,0-1.9,0.2-2.7,0.5s-1.5,0.8-2.2,1.4c-0.6,0.6-1.1,1.3-1.4,2.1s-0.5,1.7-0.5,2.7
				s0.2,1.8,0.5,2.7c0.3,0.8,0.8,1.5,1.4,2.1s1.3,1.1,2.2,1.4c0.8,0.3,1.7,0.5,2.7,0.5c0.9,0,1.8-0.2,2.6-0.5
				c0.8-0.3,1.5-0.8,2.2-1.5l1.1,1.1c-0.7,0.8-1.6,1.4-2.6,1.8C417.8,130.6,416.7,130.8,415.5,130.8z"/>
			<path class="st1" d="M427.2,130.7v-16.1h1.7v14.6h9v1.5H427.2z"/>
			<path class="st1" d="M442.3,113.3l3.1-2.8h2.2l-3.7,2.8H442.3z M443,130.7v-16.1h1.7v16.1H443z"/>
			<path class="st1" d="M452.2,130.7v-16.1h1.4l11.1,14H464v-14h1.7v16.1h-1.4l-11.1-14h0.7v14H452.2z"/>
			<path class="st1" d="M473.2,130.7v-16.1h1.7v16.1H473.2z"/>
		</g>
	</g>
	<g>
		<g class="st0">
			<path class="st1" d="M488.4,130.8c-1.2,0-2.3-0.2-3.4-0.6c-1-0.4-1.9-1-2.7-1.7c-0.8-0.7-1.3-1.6-1.8-2.6c-0.4-1-0.6-2.1-0.6-3.3
				s0.2-2.3,0.6-3.3c0.4-1,1-1.9,1.8-2.6c0.8-0.7,1.7-1.3,2.7-1.7c1-0.4,2.1-0.6,3.4-0.6c1.2,0,2.3,0.2,3.3,0.6c1,0.4,1.9,1,2.6,1.8
				l-1.1,1.1c-0.7-0.7-1.4-1.2-2.2-1.5s-1.7-0.4-2.6-0.4c-1,0-1.9,0.2-2.7,0.5c-0.8,0.3-1.5,0.8-2.2,1.4c-0.6,0.6-1.1,1.3-1.4,2.1
				s-0.5,1.7-0.5,2.7s0.2,1.8,0.5,2.7c0.3,0.8,0.8,1.5,1.4,2.1c0.6,0.6,1.3,1.1,2.2,1.4c0.8,0.3,1.7,0.5,2.7,0.5
				c0.9,0,1.8-0.2,2.6-0.5c0.8-0.3,1.5-0.8,2.2-1.5l1.1,1.1c-0.7,0.8-1.6,1.4-2.6,1.8C490.6,130.6,489.5,130.8,488.4,130.8z"/>
		</g>
	</g>
	<g>
		<g class="st0">
			<path class="st1" d="M496.7,130.7l7.4-16.1h1.7l7.4,16.1h-1.8l-6.8-15.1h0.7l-6.8,15.1H496.7z M499.6,126.4l0.5-1.4h9.4l0.5,1.4
				H499.6z"/>
			<path class="st1" d="M533.5,130.8c-1.2,0-2.4-0.2-3.4-0.6c-1-0.4-1.9-1-2.7-1.7c-0.8-0.7-1.3-1.6-1.8-2.6c-0.4-1-0.6-2.1-0.6-3.3
				s0.2-2.3,0.6-3.3c0.4-1,1-1.9,1.8-2.6c0.8-0.7,1.7-1.3,2.7-1.7c1-0.4,2.2-0.6,3.4-0.6c1.2,0,2.3,0.2,3.4,0.6c1,0.4,1.9,1,2.6,1.7
				l-1.1,1.1c-0.7-0.7-1.4-1.2-2.2-1.4c-0.8-0.3-1.7-0.4-2.6-0.4c-1,0-1.9,0.2-2.7,0.5s-1.6,0.8-2.2,1.4c-0.6,0.6-1.1,1.3-1.4,2.1
				s-0.5,1.7-0.5,2.7c0,1,0.2,1.8,0.5,2.6c0.3,0.8,0.8,1.5,1.4,2.1c0.6,0.6,1.3,1.1,2.2,1.4c0.8,0.3,1.7,0.5,2.7,0.5
				c0.9,0,1.8-0.1,2.6-0.4c0.8-0.3,1.6-0.7,2.3-1.4l1,1.3c-0.8,0.7-1.7,1.2-2.7,1.5S534.6,130.8,533.5,130.8z M539.4,128.7l-1.6-0.2
				v-5.9h1.6V128.7z"/>
			<path class="st1" d="M546.5,130.7v-16.1h11v1.5h-9.3v13.1h9.7v1.5H546.5z M548,123.2v-1.4h8.5v1.4H548z"/>
			<path class="st1" d="M564.1,130.7v-16.1h6c2,0,3.6,0.5,4.8,1.5c1.2,1,1.8,2.3,1.8,4.1c0,1.1-0.3,2.1-0.8,2.9s-1.3,1.4-2.3,1.9
				s-2.2,0.7-3.5,0.7h-5.1l0.8-0.8v5.9H564.1z M565.8,124.9l-0.8-0.8h5c1.6,0,2.8-0.4,3.7-1.1c0.8-0.7,1.3-1.7,1.3-3
				c0-1.3-0.4-2.3-1.3-3c-0.8-0.7-2.1-1.1-3.7-1.1h-5l0.8-0.8V124.9z M575.1,130.7l-4.1-5.8h1.8l4.2,5.8H575.1z"/>
			<path class="st1" d="M580.5,130.7l7.4-16.1h1.7l7.4,16.1h-1.8l-6.8-15.1h0.7l-6.8,15.1H580.5z M583.4,126.4l0.5-1.4h9.4l0.5,1.4
				H583.4z"/>
			<path class="st1" d="M601.8,130.7v-16.1h1.7v14.6h9v1.5H601.8z"/>
		</g>
	</g>
	<g>
		<path class="st2" d="M230.7,86.8c-4,1.1-7,1.7-9.1,1.7c-0.8,0-1.5-0.1-2.1-0.2c-1.5-0.3-2.7-1.2-2.7-2.6c0-0.2,0-0.5,0.1-0.7
			c0.9-4,6.3-7.8,11.5-9.6c1.4-0.5,3.4-0.9,5.2-0.9c2.7,0,5.1,1,5.1,4.2V79c0,0.4-0.3,0.6-0.7,0.6c-0.3,0-0.6-0.3-0.6-0.7v-0.2
			c0-2.3-1.8-3-3.8-3c-1.7,0-3.6,0.5-4.8,0.9c-4.8,1.6-9.9,5.1-10.6,8.6c0,0.2-0.1,0.3-0.1,0.4c0,0.9,0.7,1.2,1.6,1.4
			c0.5,0.1,1,0.2,1.8,0.2c2,0,4.8-0.5,8.8-1.6c13.6-3.9,26.6-14.5,33.1-25.5c3-5.1,4.4-9.6,4.4-13.5c0-11-11-16.8-26.1-17.5
			c-1.4-0.1-2.8-0.1-4.2-0.1c-11.4,0-22.8,2.2-32,6.4c-9.1,4.1-19.5,12.8-19.5,21.1c0,4.1,2.6,8,9,11.2c0.2,0.1,0.4,0.3,0.4,0.6
			c0,0.1,0,0.2-0.1,0.3c-0.1,0.2-0.4,0.4-0.6,0.4c-0.1,0-0.2,0-0.2-0.1c-7-3.4-9.7-7.8-9.7-12.2c0-8.7,10.4-17.8,20.2-22.2
			c9.4-4.2,20.9-6.3,32.4-6.3c1.5,0,3,0,4.5,0.1c15.8,0.8,27.4,7,27.4,18.4c0,4.1-1.4,8.7-4.6,14.1C258,71.9,244.6,82.8,230.7,86.8
			L230.7,86.8z M216.6,77.2c-0.2,0-0.2,0-0.3-0.1c-0.2-0.2-0.3-0.4-0.3-0.6c0-0.1,0-0.2,0.1-0.3c1.8-2.8,3.6-5.9,5.5-9.1
			c5.8-9.5,11.9-19.4,17.3-27c0.2-0.2,0.3-0.3,0.6-0.3c0.2,0,0.2,0.1,0.4,0.2c0.2,0.2,0.2,0.3,0.2,0.6c0,0.1-0.1,0.2-0.2,0.4
			c-5.4,7.5-11.4,17.4-17.2,26.9c-1.8,3-3.7,6-5.5,9.1C217,77.1,216.8,77.2,216.6,77.2L216.6,77.2z"/>
		<path class="st2" d="M263.8,81c0-0.1-0.1-0.2-0.1-0.3c0-0.5,0.3-1.1,0.8-1.9s1.2-1.8,2.1-2.8c0.9-1.6,1.9-3.4,3.2-5.5
			c0.2-0.2,0.4-0.2,0.6-0.2c0.1,0,0.2,0,0.3,0.1c0.2,0.1,0.3,0.3,0.3,0.5s-0.1,0.2-0.2,0.4c-0.3,0.6-0.6,1.1-1,1.6
			c2.8-2.2,6.4-4.1,10.1-4.2h0.3c0.9,0,1.2,0.3,1.2,0.9c0,0.4-0.3,0.8-0.7,1.2c-0.4,0.6-1,1.1-1,1.8v0.3c0,0.2-0.2,0.5-0.5,0.6h-0.2
			c-0.3,0-0.6-0.2-0.6-0.5c0-0.2-0.1-0.3-0.1-0.5c0-1,0.7-1.8,1.3-2.4c-4.8,0.2-9.3,3.7-12.1,6.7v0.1c-0.5,0.8-1,1.6-1.3,2.3
			c-0.5,0.9-1,1.7-1.3,2.3c-0.1,0.2-0.3,0.3-0.6,0.3c-0.1,0-0.2,0-0.3-0.1C264,81.5,263.8,81.3,263.8,81L263.8,81z"/>
		<path class="st2" d="M285.7,79.9c-1.7-0.1-2.3-0.9-2.3-2.1c0-3.3,5.4-9.5,10.1-10.7V67c0.8-0.2,1.5-0.2,2.2-0.2c0.4,0,0.7,0,1,0.1
			c1,0.2,1.8,0.6,2.2,1.4c0.3,0.5,0.5,1.1,0.5,1.8c0,0.3-0.2,0.6-0.6,0.6h-0.2c-0.4,0-0.6-0.3-0.6-0.6c0-0.4-0.1-0.7-0.2-1
			c-0.2-0.4-0.7-0.6-1.4-0.7c-0.3-0.1-0.6-0.1-1-0.1c-0.5,0-1,0.1-1.6,0.2h-0.1c-3.6,0.9-9,6.8-9,9.4c0,0.6,0.2,1,0.9,1.2
			c0.2,0.1,0.3,0.1,0.6,0.1c3.4,0,12.2-6.4,13.1-7.1c1.1-0.8,1.8-1.1,2.5-1.1c0.7,0,1.3,0.4,1.8,1.2c0.3,0.5,0.6,1,1,1.6
			c1.8,3.4,3.9,4.6,6.2,4.6c4.3,0,9.2-4.2,13-7c0.2-0.1,0.2-0.2,0.4-0.2s0.4,0.2,0.5,0.3c0.1,0.1,0.1,0.2,0.1,0.3
			c0,0.2-0.1,0.3-0.3,0.5c-4.2,2.9-9.3,7.1-13.9,7.1c-2.6,0-5-1.4-7.1-5c-0.3-0.6-0.6-1-0.9-1.4c-0.3-0.5-0.7-0.7-1.2-0.7
			c-0.4,0-0.9,0.2-1.5,0.6c-1.4,1-9.8,7.2-14,7.2C286,79.9,285.7,79.9,285.7,79.9z"/>
		<path class="st2" d="M328,80c0.1,0.2,0.1,0.3,0.1,0.4c0,0.3-0.1,0.6-0.2,0.8c-0.2,0.2-0.2,0.4-0.4,0.5c-0.4,0.4-1,0.7-1.4,0.9
			c-0.2,0.1-0.5,0.1-0.8,0.1s-0.6,0-0.8-0.2c-0.1-0.1-0.2-0.2-0.2-0.2c0-0.1-0.1-0.1-0.1-0.2c-0.2-0.2-0.3-0.6-0.3-0.9
			c0-0.2,0.1-0.5,0.2-0.7c0.2-0.5,0.4-1,0.8-1.4h0.1c0.1-0.2,0.2-0.2,0.4-0.4c0.2-0.1,0.2-0.2,0.4-0.2c0.2,0,0.5,0.2,0.6,0.3
			c0,0,0,0.1,0.1,0.1h0.6c0.2,0,0.5,0.2,0.6,0.3C327.8,79.5,327.9,79.8,328,80L328,80z M326.6,80.5c-0.1,0-0.2,0.1-0.4,0.2
			c-0.1,0.1-0.2,0.2-0.4,0.2s-0.2,0-0.3-0.1c-0.1,0.1-0.2,0.2-0.2,0.3c-0.1,0.1-0.1,0.2-0.1,0.2h0.4c0.2-0.2,0.6-0.3,0.8-0.5
			C326.5,80.6,326.5,80.6,326.6,80.5z"/>
		<path class="st2" d="M396.6,29.2c0-1.8-0.6-3.2-1.8-3.3h-0.3c-9.7,0-43.2,31-44,39.9v0.3c0,2.5,2.3,3.9,6.2,6.2
			c0.2,0.1,0.4,0.4,0.4,0.6c0,0.1,0,0.2-0.1,0.2c-0.2,0.2-0.4,0.3-0.6,0.3c-0.1,0-0.2,0-0.3-0.1c-4.3-2.3-7-4.1-7-7.1v-0.6
			c0.9-9.5,34.7-40.5,45.5-40.5h0.4c1.8,0.2,3,1.2,3,3.5v0.5c-0.2,3.5-2.6,9.8-8.6,19.9c-9,15.1-15.9,25.4-21.2,32.4
			c10.2,0,20.4,2.2,30.5,2.2c0.3,0,0.6,0.2,0.6,0.6c0,0.3-0.3,0.6-0.6,0.6c-10.2,0-20.7-2.2-31-2.2H367c-1.4,1.9-8.9,11.5-12.7,11.5
			c-0.4,0-0.7-0.1-1-0.3c-1-0.6-1.4-1.5-1.4-2.5c0-4.1,7.5-9.8,14.6-10c5.3-6.9,12.4-17.5,21.7-33.2C394,38.4,396.5,32.4,396.6,29.2
			L396.6,29.2z M354.4,93.1c2.6,0,9.9-9.1,10.9-10.2c-6,0.2-12.1,5.7-12.1,8.7c0,0.6,0.2,1.1,0.7,1.4
			C354.1,93.1,354.2,93.1,354.4,93.1L354.4,93.1z"/>
		<path class="st2" d="M404.8,79.5c-1.3-0.1-2.2-0.9-2.2-2.2v-0.2c0.1-0.7,0.4-1.6,1.1-2.6c0.5-0.6,1.1-1.4,1.8-2.2
			c0.7-0.6,1.5-1.4,2.3-1.9c0.1-0.1,0.2-0.1,0.3-0.1c0.2,0,0.5,0.1,0.6,0.3c0.1,0.1,0.1,0.2,0.1,0.3s-0.1,0.4-0.3,0.6
			c-0.7,0.5-1.4,1.1-2.1,1.8c-0.7,0.7-1.3,1.4-1.8,2.1c-0.6,0.8-0.8,1.4-0.8,1.9v0.2c0,0.6,0.2,1.3,1,1.3h0.2c1.7,0,4.6-2.5,7-4.3
			c2.1-1.7,3.8-3.2,5-3.2h0.2c0.7,0.2,1.1,0.7,1.1,1.9c0,0.5-0.1,1-0.2,1.7c-0.1,0.3-0.1,0.6-0.1,0.9c0,0.3,0,0.5,0.1,0.7
			c0.1,0.5,0.6,0.7,1.3,0.8h0.2c3.5,0,11-4.2,13.8-6.1c0.2-0.1,0.2-0.2,0.4-0.2s0.4,0.2,0.5,0.3c0.1,0.1,0.1,0.2,0.1,0.2
			c0,0.2-0.2,0.4-0.4,0.6c-3.1,1.9-10.3,6.4-14.2,6.4h-0.3c-1.3,0-2.2-0.6-2.6-1.8c-0.1-0.2-0.1-0.6-0.1-0.9s0-0.8,0.2-1.3
			c0.2-0.7,0.2-1.3,0.2-1.7s-0.1-0.6-0.3-0.7h-0.1c-0.7,0-2.5,1.4-4.4,3c-2.6,1.9-5.3,4.3-7.4,4.3L404.8,79.5L404.8,79.5z"/>
		<path class="st2" d="M430.6,75.9c0-0.6,0.2-1.3,0.6-2.1c0.3-0.7,1-1.6,1.8-2.5c2.4-2.2,6.4-4.1,9.7-4.1h0.4c0.6,0,1.3,0.1,1.8,0.3
			c0.4,0.2,0.7,0.3,1,0.6s0.4,0.7,0.4,1.1c0,0.2-0.1,0.5-0.2,0.6v0.1c-0.5,1.2-3,2.5-5.4,3c-0.7,0.2-1.4,0.2-2.1,0.2h-0.6
			c-1-0.1-1.8-0.3-2.3-0.7c-0.3-0.2-0.6-0.6-0.7-1c-0.3,0.2-0.6,0.5-0.9,0.7c-0.8,0.8-1.3,1.4-1.6,2.1c-0.2,0.6-0.4,1-0.4,1.4
			c0,1.1,1,1.7,2.3,2c0.8,0.2,1.8,0.2,2.7,0.2c6.8,0,16.7-3.8,21.6-6.8c0.2-0.1,0.2-0.2,0.4-0.2s0.3,0.2,0.5,0.3
			c0.1,0.1,0.1,0.2,0.1,0.2c0,0.2-0.1,0.4-0.3,0.6c-5.5,3.5-14.6,7.1-21.9,7.1c-1.1,0-2.2-0.1-3.2-0.2
			C432.1,78.6,430.6,77.7,430.6,75.9L430.6,75.9z M442.7,68.5c-2.4,0-5,1.2-7,2.4c0.3,1,1.3,1.3,2.4,1.3c2.7,0,6.6-2,6.6-2.8
			c0-0.3-0.4-0.8-1.8-0.9H442.7L442.7,68.5z"/>
		<path class="st2" d="M461.4,79.9c-2.7,0-4.1-1.3-4.1-3.1c0-1,0.4-2.1,1-3.4c0.2-0.5,0.5-0.9,0.6-1.2l-0.2,0.1
			c-0.1,0.1-0.2,0.1-0.3,0.1c-0.2,0-0.5-0.1-0.6-0.3c-0.1-0.1-0.1-0.2-0.1-0.3c0-0.2,0.1-0.5,0.3-0.6c0.5-0.3,1-0.6,1.2-0.6h0.2
			c0.6,0,0.8,0.2,0.9,0.8v0.2c0,0.8-0.4,1.6-0.9,2.5c-0.6,1-0.9,1.9-0.9,2.7c0,1.4,0.9,2.3,2.8,2.3c0.2,0,0.6-0.1,0.8-0.1
			c5.4-0.6,13.5-5.3,17.8-7.8c0.1-0.1,0.2-0.1,0.3-0.1c0.2,0,0.5,0.1,0.6,0.3c0.1,0.1,0.1,0.2,0.1,0.2c0,0.2-0.2,0.4-0.4,0.6
			c-5,2.6-12.6,7-18.2,7.6C462,79.8,461.7,79.9,461.4,79.9L461.4,79.9z M461.2,66.6c-0.2-0.3-0.4-0.6-0.4-1.1v-0.3
			c0.1-0.5,0.4-1,0.9-1.3c0.4-0.3,0.9-0.5,1.4-0.5h0.4c0.4,0.1,0.8,0.3,1,0.6c0.3,0.3,0.5,0.7,0.5,1.1c0,0.2,0,0.2-0.1,0.3v0.1
			c-0.1,0.5-0.4,1-0.8,1.3c-0.4,0.2-1,0.5-1.5,0.5c-0.1,0-0.2,0-0.3-0.1C461.8,67.1,461.5,67,461.2,66.6L461.2,66.6z"/>
		<path class="st2" d="M478.8,80.1c-1.1,0-1.4-1.2-1.4-2.3c0-0.4,0-0.8,0.1-1.1c0.2-1.4,0.9-3.3,2.1-5.2c0.2-0.2,0.4-0.3,0.6-0.3
			c0.1,0,0.2,0,0.3,0.1c0.2,0.1,0.3,0.3,0.3,0.6c0,0.1,0,0.2-0.1,0.3c-1.1,1.8-1.8,3.5-2,4.8c0,0.3-0.1,0.6-0.1,0.9
			c0,0.2,0.1,0.4,0.1,0.6c0,0.3,0.2,0.5,0.5,0.5s0.5-0.2,0.7-0.3c2.2-1.5,4.4-3.4,6.6-5.2c1.4-1.2,5.3-4.6,7.5-4.6
			c0.6,0,1,0.2,1.3,0.6c0.3,0.4,0.5,1,0.5,1.8c0,1.2-0.4,2.8-0.9,4.6c-0.2,0.5-0.2,1-0.2,1.5c0,1,0.5,1.8,1.8,1.9h0.4
			c4.6,0,14.5-5.7,18.2-8c0.1-0.1,0.2-0.1,0.3-0.1c0.2,0,0.5,0.1,0.6,0.2c0.1,0.1,0.1,0.2,0.1,0.2c0,0.2-0.2,0.4-0.4,0.6
			c-4,2.6-13.5,8-18.6,8h-0.6c-2.2-0.2-3-1.4-3-3c0-0.6,0.1-1.2,0.2-1.8c0.5-1.8,0.9-3.4,0.9-4.3c0-0.5-0.1-0.8-0.2-1
			s-0.3-0.2-0.6-0.2c-2.9,0-12.5,10-14.6,10.2L478.8,80.1L478.8,80.1z"/>
		<path class="st2" d="M512.1,75.9c0-0.6,0.2-1.3,0.6-2.1c0.3-0.7,1-1.6,1.8-2.5c2.4-2.2,6.4-4.1,9.7-4.1h0.4c0.6,0,1.3,0.1,1.8,0.3
			c0.4,0.2,0.7,0.3,1,0.6s0.4,0.7,0.4,1.1c0,0.2-0.1,0.5-0.2,0.6v0.1c-0.5,1.2-3,2.5-5.4,3c-0.7,0.2-1.4,0.2-2.1,0.2h-0.6
			c-1-0.1-1.8-0.3-2.3-0.7c-0.3-0.2-0.6-0.6-0.7-1c-0.3,0.2-0.6,0.5-0.9,0.7c-0.8,0.8-1.3,1.4-1.6,2.1c-0.2,0.6-0.4,1-0.4,1.4
			c0,1.1,1,1.7,2.3,2c0.8,0.2,1.8,0.2,2.7,0.2c6.8,0,16.7-3.8,21.6-6.8c0.2-0.1,0.2-0.2,0.4-0.2s0.3,0.2,0.5,0.3
			c0.1,0.1,0.1,0.2,0.1,0.2c0,0.2-0.1,0.4-0.3,0.6c-5.5,3.5-14.6,7.1-21.9,7.1c-1.1,0-2.2-0.1-3.2-0.2
			C513.6,78.6,512.1,77.7,512.1,75.9L512.1,75.9z M524.2,68.5c-2.4,0-5,1.2-7,2.4c0.3,1,1.3,1.3,2.4,1.3c2.7,0,6.7-2,6.7-2.8
			c0-0.3-0.4-0.8-1.8-0.9H524.2L524.2,68.5z"/>
		<path class="st2" d="M612,65.7c9,2.6,12.4,6.2,12.4,9.8c0,6.5-11,13-21.4,13h-0.5c-3.4-0.1-4.9-1.6-4.9-3.4c0-2.2,1.9-4.8,4.6-6.3
			c2.1-1.2,4.8-1.8,7.4-1.8c3.9,0,7.6,1.5,9,5.4c3.2-2,4.5-4,4.5-5.9c0-4.5-7.1-8.2-12.2-9.6c-0.6-0.2-1-0.3-1.4-0.4l-0.3-0.1
			c-0.3,0.1-0.6,0.1-0.7,0.1c-0.4,0-0.6-0.2-0.6-0.4c-0.3-0.1-0.5-0.2-0.5-0.3c0-0.2,0.4-0.4,1.6-0.6c15.1-3.8,23.8-8.7,27.6-13.7
			c1.5-2.1,2.2-4.2,2.2-6.2c0-0.3-0.1-0.6-0.1-1c-1.4-10.6-16.5-14.8-27.3-15.4c-1.3-0.1-2.5-0.1-3.8-0.1c-11.5,0-22.7,2.6-31.3,6.8
			c-9.4,4.6-15.4,11.6-15.4,18.3c0,5.1,3.4,10,11.3,13.6c0.2,0.1,0.4,0.3,0.4,0.6c0,0.1,0,0.2-0.1,0.3c-0.1,0.2-0.4,0.4-0.6,0.4
			c-0.1,0-0.2,0-0.2-0.1c-8.5-3.8-12.1-9.1-12.1-14.7c0-7.3,6.2-14.8,16.2-19.7c8.6-4.2,19.7-6.3,31.1-6.3c1.5,0,3,0,4.5,0.1
			c9.1,0.4,27.1,4.6,28.6,15.9c0.1,0.4,0.1,0.8,0.1,1.2c0,2.2-0.8,4.6-2.5,6.9C634,57.1,625.9,61.9,612,65.7L612,65.7z M603.1,58.9
			c-2.9,6.6-5.3,13.4-6.8,19.3c-0.2,0.2-0.4,0.5-0.7,0.5h-0.2c-0.2-0.2-0.5-0.3-0.5-0.6c0-0.1,0.1-0.2,0.1-0.2
			c1.6-5.9,3.9-12.7,6.9-19.5c2.6-5.8,5.6-11.6,9-16.7c0.1-0.2,0.3-0.3,0.5-0.3s0.2,0.1,0.4,0.2s0.3,0.3,0.3,0.5s-0.1,0.2-0.2,0.4
			C608.7,47.4,605.7,53.1,603.1,58.9L603.1,58.9z M602.8,87.1c4.2,0,11-2.1,14.8-4.1c-1.2-3.5-4.5-4.9-7.9-4.9
			c-2.4,0-4.9,0.6-6.7,1.7c-2.2,1.2-4,3.4-4,5c0,1.2,1,2.2,3.6,2.2H602.8z"/>
		<path class="st2" d="M635,79.9c-1.7-0.1-2.3-0.9-2.3-2.1c0-3.3,5.4-9.5,10.1-10.7V67c0.8-0.2,1.5-0.2,2.2-0.2c0.4,0,0.7,0,1,0.1
			c1,0.2,1.8,0.6,2.2,1.4c0.3,0.5,0.5,1.1,0.5,1.8c0,0.3-0.2,0.6-0.6,0.6H648c-0.4,0-0.6-0.3-0.6-0.6c0-0.4-0.1-0.7-0.2-1
			c-0.2-0.4-0.7-0.6-1.4-0.7c-0.3-0.1-0.6-0.1-1-0.1c-0.5,0-1,0.1-1.6,0.2h-0.1c-3.6,0.9-9,6.8-9,9.4c0,0.6,0.2,1,0.9,1.2
			c0.2,0.1,0.3,0.1,0.6,0.1c3.4,0,12.2-6.4,13.1-7.1c1.1-0.8,1.8-1.1,2.5-1.1c0.7,0,1.3,0.4,1.8,1.2c0.3,0.5,0.6,1,1,1.6
			c1.8,3.4,3.9,4.6,6.2,4.6c4.3,0,9.2-4.2,13-7c0.2-0.1,0.2-0.2,0.4-0.2s0.4,0.2,0.5,0.3c0.1,0.1,0.1,0.2,0.1,0.3
			c0,0.2-0.1,0.3-0.3,0.5c-4.2,2.9-9.3,7.1-13.8,7.1c-2.6,0-5-1.4-7.1-5c-0.3-0.6-0.6-1-0.9-1.4c-0.3-0.5-0.7-0.7-1.2-0.7
			c-0.4,0-0.9,0.2-1.5,0.6c-1.4,1-9.8,7.2-14,7.2C635.3,79.9,635,79.9,635,79.9z"/>
		<path class="st2" d="M667.4,81c0-0.1-0.1-0.2-0.1-0.3c0-0.5,0.2-1.1,0.7-1.9c0.6-0.8,1.3-1.8,2.2-2.8c0.9-1.6,1.9-3.4,3.2-5.5
			c0.2-0.2,0.4-0.2,0.6-0.2c0.1,0,0.2,0,0.3,0.1c0.2,0.1,0.3,0.3,0.3,0.5s-0.1,0.2-0.2,0.4c-0.3,0.6-0.6,1.1-1,1.6
			c2.8-2.2,6.4-4.1,10.1-4.2h0.3c0.9,0,1.2,0.3,1.2,0.9c0,0.4-0.3,0.8-0.7,1.2c-0.4,0.6-1,1.1-1,1.8v0.3c0,0.2-0.2,0.5-0.5,0.6h-0.2
			c-0.3,0-0.6-0.2-0.6-0.5c0-0.2-0.1-0.3-0.1-0.5c0-1,0.7-1.8,1.3-2.4c-4.8,0.2-9.3,3.7-12.1,6.7v0.1c-0.5,0.8-1,1.6-1.3,2.3
			c-0.5,0.9-1,1.7-1.3,2.3c-0.1,0.2-0.3,0.3-0.6,0.3c-0.1,0-0.2,0-0.3-0.1C667.6,81.5,667.4,81.3,667.4,81L667.4,81z M682.8,80.2
			c0-0.5,0.2-1.1,0.7-1.8c0.4-0.7,1-1.6,1.8-2.5c0.8-1.4,1.8-3,2.9-4.8c0.2-0.2,0.4-0.3,0.6-0.3c0.1,0,0.2,0,0.3,0.1
			c0.2,0.2,0.3,0.3,0.3,0.6c0,0.2-0.1,0.2-0.2,0.4c-0.2,0.3-0.4,0.7-0.6,1c2.5-1.8,5.4-3.4,8.7-3.5c1,0,1.4,0.3,1.4,0.9
			c0,0.4-0.2,0.7-0.6,1.1c-0.4,0.5-0.9,1-0.9,1.5v0.2c0,0.3-0.2,0.6-0.5,0.6h-0.2c-0.3,0-0.6-0.2-0.6-0.6v-0.3c0-0.9,0.5-1.6,1-2.2
			c-4.1,0.3-8,3.4-10.5,6c-0.4,0.8-0.8,1.4-1.1,2.1c-0.4,0.8-0.8,1.5-1.1,2.1c-0.1,0.2-0.3,0.3-0.6,0.3c-0.1,0-0.2,0-0.3-0.1
			c-0.2-0.1-0.4-0.3-0.5-0.6C682.8,80.5,682.8,80.3,682.8,80.2L682.8,80.2z"/>
		<path class="st2" d="M702.9,79.9c-1.7-0.1-2.3-0.9-2.3-2.1c0-3.3,5.4-9.5,10.1-10.7V67c0.8-0.2,1.5-0.2,2.2-0.2c0.4,0,0.7,0,1,0.1
			c1,0.2,1.8,0.6,2.2,1.4c0.3,0.5,0.5,1.1,0.5,1.8c0,0.3-0.2,0.6-0.6,0.6h-0.2c-0.4,0-0.6-0.3-0.6-0.6c0-0.4-0.1-0.7-0.2-1
			c-0.2-0.4-0.7-0.6-1.4-0.7c-0.3-0.1-0.6-0.1-1-0.1c-0.5,0-1,0.1-1.6,0.2H711c-3.6,0.9-9,6.8-9,9.4c0,0.6,0.2,1,0.9,1.2
			c0.2,0.1,0.3,0.1,0.6,0.1c3.4,0,12.2-6.4,13.1-7.1c1.1-0.8,1.8-1.1,2.5-1.1c0.7,0,1.3,0.4,1.8,1.2c0.3,0.5,0.6,1,1,1.6
			c1.8,3.4,3.9,4.6,6.2,4.6c4.3,0,9.2-4.2,13-7c0.2-0.1,0.2-0.2,0.4-0.2s0.4,0.2,0.5,0.3c0.1,0.1,0.1,0.2,0.1,0.3
			c0,0.2-0.1,0.3-0.3,0.5c-4.2,2.9-9.3,7.1-13.8,7.1c-2.6,0-5-1.4-7.1-5c-0.3-0.6-0.6-1-0.9-1.4c-0.3-0.5-0.7-0.7-1.2-0.7
			c-0.4,0-0.9,0.2-1.5,0.6c-1.4,1-9.8,7.2-14,7.2C703.2,79.9,702.9,79.9,702.9,79.9z"/>
		<path class="st2" d="M741.1,80.3c-1.8,0-2.7-1.3-2.7-3c0-4,4.4-10.5,10.9-10.5h0.2c1.9,0,3.4,1,3.8,4.1c4.1-4.2,7.8-9.1,11.2-14
			c2.8-4.9,6.1-9.5,8.7-12.7c0.2-0.2,0.3-0.2,0.5-0.2s0.3,0.1,0.4,0.2c0.2,0.1,0.3,0.3,0.3,0.5s-0.1,0.3-0.2,0.4
			c-2.8,3.8-4.8,6.8-6.7,9.6c-0.6,1-1.3,2-2,3c-1.3,2.2-7.1,12.5-7.1,18.1c0,1.9,0.6,3.4,2.5,3.7c0.3,0.1,0.6,0.1,1,0.1
			c5.4,0,15.2-7,17-8.2c0.1-0.1,0.2-0.1,0.3-0.1c0.2,0,0.5,0.1,0.6,0.2c0,0.1,0.1,0.1,0.1,0.2c0,0.2-0.3,0.5-0.5,0.6
			c-2.4,1.5-12.2,8.2-18,8.2h-0.6c-2.7-0.3-3.6-2.2-3.6-4.6c0-3.7,2.1-8.6,3-10.7c-3.9,5-9.8,11.7-15.4,14.3
			C743.3,80,742.1,80.3,741.1,80.3L741.1,80.3z M749.1,68.1c-5,0-9.5,6.4-9.5,9.5c0,1,0.5,1.8,1.6,1.8c0.6,0,1.5-0.2,2.6-0.8
			c3-1.4,6.3-4.6,8.7-7c-0.4,0-0.7-0.2-0.7-0.6c-0.2-2.1-1.2-2.9-2.6-2.9H749.1z"/>
		<path class="st2" d="M777.1,79.9c-1.7-0.1-2.3-0.9-2.3-2.1c0-3.3,5.4-9.5,10.1-10.7V67c0.8-0.2,1.5-0.2,2.2-0.2c0.4,0,0.7,0,1,0.1
			c1,0.2,1.8,0.6,2.2,1.4c0.3,0.5,0.5,1.1,0.5,1.8c0,0.3-0.2,0.6-0.6,0.6H790c-0.4,0-0.6-0.3-0.6-0.6c0-0.4-0.1-0.7-0.2-1
			c-0.2-0.4-0.7-0.6-1.4-0.7c-0.3-0.1-0.6-0.1-1-0.1c-0.5,0-1,0.1-1.6,0.2h-0.1c-3.6,0.9-9,6.8-9,9.4c0,0.6,0.2,1,0.9,1.2
			c0.2,0.1,0.3,0.1,0.6,0.1c3.4,0,12.2-6.4,13.1-7.1c1.1-0.8,1.8-1.1,2.5-1.1c0.7,0,1.3,0.4,1.8,1.2c0.3,0.5,0.6,1,1,1.6
			c1.8,3.4,3.9,4.6,6.2,4.6c4.3,0,9.2-4.2,13-7c0.2-0.1,0.2-0.2,0.4-0.2s0.4,0.2,0.5,0.3c0.1,0.1,0.1,0.2,0.1,0.3
			c0,0.2-0.1,0.3-0.3,0.5c-4.2,2.9-9.3,7.1-13.8,7.1c-2.6,0-5-1.4-7.1-5c-0.3-0.6-0.6-1-0.9-1.4c-0.3-0.5-0.7-0.7-1.2-0.7
			c-0.4,0-0.9,0.2-1.5,0.6c-1.4,1-9.8,7.2-14,7.2C777.3,79.9,777.1,79.9,777.1,79.9z"/>
		<path class="st2" d="M808.8,80.5v-0.3c0.2-1.2,3.4-2.1,7.6-3.2l0.6-0.2c-0.2-1-0.6-2-1-3c-0.6-1.4-1-2.7-1-3.8
			c0-0.3,0.2-0.8,0.5-1.1s0.6-0.6,1-0.6c0.3,0,0.6,0.2,0.7,0.6c0,0.3-0.2,0.6-0.6,0.7l-0.1,0.1l-0.2,0.3c0,0.9,0.4,2.1,0.9,3.4
			c0.4,1,0.8,2.1,1,3.1c4.6-1.3,10.2-2.9,14.2-5.3c0.1-0.1,0.2-0.1,0.3-0.1c0.2,0,0.5,0.1,0.6,0.3c0,0.1,0.1,0.1,0.1,0.2
			c0,0.2-0.2,0.4-0.5,0.6c-4.1,2.5-9.7,4.4-14.5,5.7c0,0.4-0.1,0.9-0.2,1.3c-0.2,1-1,1.8-2,2.2c-1,0.6-2.4,0.8-3.6,0.8H812
			c-0.6,0-1,0-1.3-0.1c-0.6-0.1-1-0.2-1.3-0.5C809,81.3,808.8,80.9,808.8,80.5L808.8,80.5z M810.2,80.5c0.1,0.2,0.3,0.2,0.7,0.3
			s1,0.1,1.6,0.1c1.1-0.1,2.2-0.2,3.1-0.7c0.6-0.3,1.1-0.8,1.3-1.4c0.1-0.2,0.1-0.4,0.1-0.6l-0.2,0.1C813,79.3,810.2,80,810.2,80.5
			C810.1,80.5,810.1,80.5,810.2,80.5L810.2,80.5z"/>
	</g>
	<g>
		<g>
			<path class="st1" d="M4,68.9c6.3-8.6,13.4-16.8,21.7-23.6c2.9-2.4,6.1-4.6,9.4-6.4c1.5-0.8,3-1.6,4.5-2.2
				c0.6-0.3,1.1-0.5,1.9-0.8c0.7-0.3,1.3-0.5,2-0.7c1.3-0.4,2.6-0.8,4-1.1c0.6-0.1,1.2-0.2,1.8-0.4c0.3,0,0.6-0.1,0.9-0.1
				c0.4-0.1-0.2,0,0.2,0c0.2,0,0.3,0,0.5-0.1c2.7-0.3,5.4-0.3,8.1-0.1c9.6,0.6,19.1,2.8,28.3,5.2c12,3.1,24.8,6.2,37.2,3.2
				c4.5-1.1,9.1-3.5,12.1-7.1c1.4-1.8,2.5-3.8,2.9-6.1c0.4-2.5,0-5-1.2-7.2c-2.6-4.8-7.8-7.4-13.1-7.7c-5.6-0.4-11.2,1.4-16.1,3.9
				c-9.2,4.7-16.4,12.7-21.8,21.3C80.9,49,76.9,60.4,72.4,71.3c-4.1,10-8.7,20-15.8,28.3c-3.3,3.9-7,7.4-11.3,10.1
				c-3.5,2.2-8,4.5-12.2,3.6c-1.8-0.3-3.3-1.2-4.1-3c-0.9-2.1-0.2-4.7,1.1-6.5c1.5-2,3.9-3.2,6.2-4.1s4.5-1.2,6.8-1.4
				c8.8-0.7,17.8,1.2,26.2,3.8c3.5,1.1,6.9,2.4,10.4,3.6c4.7,1.6,9.4,3.2,14.2,4.6s9.5,2.7,14.4,3.5c3,0.5,6,0.5,9,0.4
				c7.4-0.3,15.5-1.9,21-7.3c6.4-6.4,6.7-16.4,3.5-24.4c-1.7-4.3-4.3-8.2-7.8-11.2c-4-3.4-8.9-5.2-14-5.7c-4.2-0.3-8.4,0.2-12.4,1.4
				c-3.6,1-7.1,2.4-10.3,4.3c-3.4,2.1-6.6,4.7-9.2,7.7c-0.5,0.6-0.6,1.4,0,2c0.5,0.5,1.5,0.6,2,0c2.7-3.1,5.8-5.7,9.4-7.7
				c3-1.7,6.2-2.9,9.5-3.8c4-1,8.1-1.5,12.2-0.9c4.8,0.6,9.1,2.8,12.5,6.2c5.8,5.9,8.9,15.4,6.6,23.5c-1.1,3.7-3.4,6.8-6.6,8.8
				c-3.1,2-6.6,3.1-10.3,3.8c-4.2,0.7-9,0.9-13.4,0.4c-0.1,0-0.3,0-0.4-0.1c-0.3,0,0,0,0.1,0c-0.1,0-0.2,0-0.3-0.1
				c-0.6-0.1-1.2-0.2-1.8-0.3c-2.2-0.4-4.4-0.9-6.7-1.5c-9-2.3-17.8-5.2-26.5-8.4c-6.9-2.5-14.2-4.3-21.6-5.2
				c-4.8-0.5-9.7-0.6-14.3,0.5c-5.1,1.1-10.5,3.8-12.2,9.1c-0.8,2.4-0.6,5.2,0.8,7.3c1.2,1.8,3.2,3,5.3,3.4
				c4.7,0.9,9.2-0.9,13.2-3.2c9-5.3,15.7-13.7,20.9-22.6c5.8-10.1,9.6-21.1,14.1-31.8c4.2-10,9.1-20,16.5-28.1
				c3.4-3.7,7.2-6.9,11.5-9.4c4.5-2.6,9.7-4.5,14.9-4.6c5-0.1,10.1,1.9,12.4,6.6c1,1.9,1.1,4.1,0.6,6.1c-0.6,2-1.8,3.7-3.2,5.1
				c-3.5,3.3-8.2,4.9-12.9,5.6c-6.1,0.9-12.3,0.4-18.3-0.6c-6.2-1.1-12.2-2.8-18.3-4.3c-5-1.2-10.1-2.3-15.2-3.1
				c-6.3-1-12.8-1.7-19.2-0.8c-5.9,0.9-11.5,3.1-16.6,6.1c-7.6,4.5-14.2,10.5-20.1,17C8.6,58.3,5,62.9,1.6,67.5
				c-0.5,0.6-0.1,1.6,0.5,1.9C2.8,69.8,3.5,69.5,4,68.9L4,68.9L4,68.9z"/>
			<path class="st1" d="M120.4,114.8c7.8,3,15.4,9.3,16.6,17.9c0.6,4.1-0.5,8.2-2.6,11.7c-0.3,0.5-0.6,1-0.9,1.4
				c-0.1,0.1-0.2,0.2-0.3,0.4c0.2-0.3-0.1,0.2-0.2,0.2c-0.1,0.2-0.3,0.4-0.5,0.5c-1.2,1.3-2.5,2.4-3.8,3.4
				c-6.4,4.4-14.6,5.8-22.3,5.6c-8.2-0.2-16.3-2.3-23.5-6.3c-2.7-1.5-5.3-3.2-7.9-4.9c-4.3-2.8-8.6-5.7-13.2-7.8
				c-5-2.2-10.5-3.6-16-2.7c-4.5,0.7-9.1,3.3-11,7.6c-1.9,4.3-0.1,9,3.5,11.9c1.8,1.4,3.8,2.5,6.1,2.9c2.4,0.5,5,0.3,7.4-0.2
				c5-1.1,9.3-3.9,13-7.2c3.4-3,6.6-6.2,9.6-9.6c6.4-7.1,12.1-14.8,17.5-22.7c4.4-6.5,8.7-13.2,12.7-19.9c0.7-1.1,1.3-2.3,2-3.4
				c0.9-1.6-1.5-3-2.4-1.4c-3.5,6-7.2,12-11,17.8c-5.1,7.8-10.4,15.3-16.3,22.5c-2.9,3.6-6,7.1-9.3,10.4s-6.6,6.5-10.6,8.7
				c-3.9,2.2-8.9,3.5-13.3,2.1c-3.6-1.2-7-4.4-6.8-8.4c0.2-4.3,4.5-7.1,8.3-8c5-1.2,10.4,0,15,2.1s8.9,4.9,13.2,7.7
				c2.6,1.7,5.2,3.4,7.9,4.9c7.3,4.1,15.4,6.4,23.8,6.8c8,0.4,16.5-0.8,23.5-4.9c6.1-3.6,10.4-9.6,11.3-16.7
				c1.1-9.1-4.8-17.2-12.2-21.9c-2-1.3-4.2-2.3-6.4-3.2c-0.7-0.3-1.5,0.3-1.7,1C119.2,113.8,119.7,114.5,120.4,114.8L120.4,114.8
				L120.4,114.8z"/>
		</g>
		<path class="st1" d="M84.4,168.8C37.9,168.8,0,130.9,0,84.4S37.9,0,84.4,0s84.4,37.9,84.4,84.4S130.9,168.8,84.4,168.8L84.4,168.8
			z M84.4,2.4c-45.2,0-82,36.8-82,82s36.8,82,82,82s82-36.8,82-82S129.6,2.4,84.4,2.4L84.4,2.4z"/>
	</g>
</g>
</svg>
