<?xml version="1.0" encoding="UTF-8"?><svg id="Camada_2" xmlns="http://www.w3.org/2000/svg" viewBox="0 0 694.28 329.14"><g id="Camada_1-2"><g><text transform="translate(237.12 317.53)" style="fill:#fff; font-family:Montserrat-Thin, Montserrat; font-size:24.52px; font-variation-settings:&apos;wght&apos; 100;"><tspan x="0" y="0" style="letter-spacing:.1em;">CLÍNI</tspan><tspan x="77.71" y="0" style="letter-spacing:.08em;">C</tspan><tspan x="96.87" y="0" style="letter-spacing:.1em;">A GERAL</tspan></text><text transform="translate(237.12 317.53)" style="fill:none; font-family:Montserrat-Thin, Montserrat; font-size:24.52px; font-variation-settings:&apos;wght&apos; 100; stroke:#fff; stroke-miterlimit:10;"><tspan x="0" y="0" style="letter-spacing:.1em;">CLÍNI</tspan><tspan x="77.71" y="0" style="letter-spacing:.08em;">C</tspan><tspan x="96.87" y="0" style="letter-spacing:.1em;">A GERAL</tspan></text></g><g><path d="M50.05,270.73c-4.27,1.2-7.43,1.79-9.66,1.79-.85,0-1.62-.09-2.22-.26-1.62-.34-2.91-1.28-2.91-2.82,0-.26,0-.51,.09-.77,.94-4.27,6.75-8.37,12.3-10.25,1.54-.51,3.59-.94,5.55-.94,2.91,0,5.47,1.03,5.47,4.44v.43c0,.43-.34,.68-.77,.68-.34,0-.68-.34-.68-.77v-.26c0-2.48-1.88-3.16-4.02-3.16-1.79,0-3.85,.51-5.13,.94-5.13,1.71-10.51,5.47-11.28,9.14,0,.17-.09,.34-.09,.43,0,.94,.77,1.28,1.71,1.54,.51,.08,1.11,.17,1.88,.17,2.14,0,5.13-.51,9.4-1.71,14.53-4.19,28.37-15.47,35.29-27.26,3.25-5.47,4.7-10.25,4.7-14.44,0-11.71-11.79-17.94-27.86-18.71-1.54-.09-2.99-.09-4.53-.09-12.13,0-24.35,2.39-34.18,6.84-9.74,4.36-20.76,13.67-20.76,22.47,0,4.36,2.73,8.54,9.57,11.96,.26,.08,.43,.34,.43,.6,0,.08,0,.26-.09,.34-.09,.26-.43,.43-.68,.43-.09,0-.17,0-.26-.08-7.43-3.67-10.34-8.29-10.34-12.99,0-9.23,11.11-19.06,21.53-23.67,10-4.44,22.3-6.75,34.52-6.75,1.62,0,3.25,0,4.79,.08,16.92,.85,29.22,7.43,29.22,19.65,0,4.36-1.54,9.31-4.87,15.04-7.01,12.05-21.28,23.67-36.15,27.94Zm-15.04-10.25c-.17,0-.26,0-.34-.08-.26-.17-.34-.43-.34-.68,0-.08,0-.26,.09-.34,1.88-2.99,3.85-6.32,5.9-9.66,6.24-10.17,12.65-20.68,18.46-28.8,.17-.17,.34-.34,.6-.34,.17,0,.26,.09,.43,.17,.17,.17,.26,.34,.26,.6,0,.08-.09,.26-.17,.43-5.73,8.03-12.13,18.54-18.37,28.71-1.97,3.25-3.93,6.41-5.9,9.66-.09,.26-.34,.34-.6,.34Z" style="fill:#fff; stroke:#fff; stroke-miterlimit:10; stroke-width:2px;"/><path d="M85.42,264.5c0-.08-.09-.26-.09-.34,0-.51,.34-1.2,.85-2.05s1.28-1.97,2.22-2.99c.94-1.71,2.05-3.67,3.42-5.9,.17-.17,.43-.26,.68-.26,.09,0,.26,0,.34,.09,.17,.09,.34,.34,.34,.51s-.09,.26-.17,.43c-.34,.6-.68,1.2-1.03,1.71,2.99-2.39,6.84-4.36,10.77-4.44h.34c.94,0,1.28,.34,1.28,.94,0,.43-.34,.85-.77,1.28-.43,.6-1.03,1.2-1.03,1.88v.34c0,.26-.26,.51-.51,.6h-.17c-.34,0-.6-.26-.68-.51,0-.17-.09-.34-.09-.51,0-1.11,.77-1.97,1.37-2.56-5.13,.26-9.91,3.93-12.9,7.18v.09c-.51,.85-1.03,1.71-1.37,2.48-.51,.94-1.03,1.79-1.37,2.48-.09,.26-.34,.34-.6,.34-.09,0-.26,0-.34-.08-.26-.08-.51-.34-.51-.68Z" style="fill:#fff; stroke:#fff; stroke-miterlimit:10; stroke-width:2px;"/><path d="M108.83,263.39c-1.79-.09-2.48-.94-2.48-2.22,0-3.5,5.81-10.17,10.77-11.45v-.09c.85-.17,1.62-.26,2.31-.26,.43,0,.77,0,1.11,.08,1.11,.26,1.97,.68,2.39,1.45,.34,.51,.51,1.2,.51,1.88,0,.34-.26,.68-.6,.68h-.17c-.43,0-.68-.34-.68-.68,0-.43-.09-.77-.26-1.11-.26-.43-.77-.68-1.45-.77-.34-.08-.68-.08-1.03-.08-.51,0-1.11,.08-1.71,.26h-.09c-3.85,.94-9.57,7.26-9.57,10,0,.68,.26,1.11,.94,1.28,.17,.08,.34,.08,.6,.08,3.59,0,12.99-6.84,14.01-7.6,1.2-.86,1.97-1.2,2.65-1.2,.77,0,1.37,.43,1.97,1.28,.34,.51,.68,1.11,1.03,1.71,1.88,3.59,4.19,4.87,6.67,4.87,4.61,0,9.83-4.53,13.84-7.43,.17-.09,.26-.17,.43-.17s.43,.17,.51,.34c.09,.08,.09,.26,.09,.34,0,.17-.09,.34-.34,.51-4.44,3.08-9.91,7.52-14.78,7.52-2.82,0-5.38-1.45-7.6-5.3-.34-.6-.68-1.11-.94-1.54-.34-.51-.77-.77-1.28-.77-.43,0-.94,.17-1.62,.68-1.54,1.11-10.42,7.69-14.95,7.69h-.26Z" style="fill:#fff; stroke:#fff; stroke-miterlimit:10; stroke-width:2px;"/><path d="M153.95,263.47c.09,.17,.09,.34,.09,.43,0,.34-.09,.6-.26,.86-.17,.17-.26,.43-.43,.51-.43,.43-1.03,.77-1.54,.94-.26,.08-.51,.08-.85,.08s-.6,0-.85-.17c-.09-.09-.17-.17-.26-.17,0-.08-.09-.08-.09-.17-.26-.26-.34-.6-.34-.94,0-.26,.09-.51,.17-.77,.17-.51,.43-1.03,.85-1.45h.09c.09-.17,.26-.26,.43-.43,.17-.08,.26-.17,.43-.17,.26,0,.51,.17,.68,.34,0,0,0,.08,.09,.08h.6c.26,0,.51,.17,.68,.34,.26,.17,.43,.43,.51,.68Zm-1.54,.51c-.09,0-.26,.09-.43,.17-.09,.08-.26,.17-.43,.17s-.26,0-.34-.09c-.09,.09-.17,.26-.17,.34-.09,.09-.09,.17-.09,.17h.43c.26-.17,.6-.34,.85-.51,.09-.08,.09-.17,.17-.26Z" style="fill:#fff; stroke:#fff; stroke-miterlimit:10; stroke-width:2px;"/><path d="M227.18,209.21c0-1.88-.68-3.42-1.97-3.5h-.34c-10.34,0-46.14,33.07-47,42.55v.34c0,2.65,2.48,4.19,6.67,6.58,.26,.08,.43,.43,.43,.68,0,.08,0,.17-.09,.26-.17,.26-.43,.34-.68,.34-.09,0-.26,0-.34-.09-4.61-2.48-7.43-4.36-7.43-7.6v-.6c.94-10.08,37-43.24,48.54-43.24h.43c1.97,.17,3.16,1.28,3.16,3.76v.51c-.17,3.76-2.82,10.43-9.23,21.28-9.57,16.06-17,27.09-22.64,34.61,10.85,0,21.79,2.39,32.56,2.39,.34,0,.68,.26,.68,.68,0,.34-.34,.68-.68,.68-10.94,0-22.05-2.39-33.07-2.39h-.6c-1.54,2.05-9.48,12.3-13.59,12.3-.43,0-.77-.09-1.11-.34-1.03-.68-1.54-1.62-1.54-2.65,0-4.36,7.95-10.51,15.55-10.68,5.64-7.35,13.24-18.63,23.16-35.38,6.32-10.6,8.97-17.09,9.14-20.51Zm-45.03,68.27c2.73,0,10.6-9.74,11.62-10.94-6.41,.26-12.9,6.07-12.9,9.23,0,.6,.26,1.2,.77,1.54,.17,.09,.26,.17,.51,.17Z" style="fill:#fff; stroke:#fff; stroke-miterlimit:10; stroke-width:2px;"/><path d="M235.89,262.96c-1.37-.09-2.31-.94-2.31-2.31v-.17c.09-.77,.43-1.71,1.2-2.82,.51-.68,1.2-1.54,1.97-2.39,.77-.68,1.62-1.45,2.48-2.05,.09-.08,.26-.08,.34-.08,.26,0,.51,.08,.68,.34,.09,.08,.09,.17,.09,.34s-.09,.43-.34,.6c-.77,.51-1.54,1.2-2.22,1.88-.77,.77-1.37,1.54-1.88,2.22-.6,.85-.85,1.54-.85,2.05v.26c0,.6,.26,1.37,1.03,1.37h.17c1.79,0,4.87-2.65,7.43-4.61,2.22-1.79,4.02-3.42,5.38-3.42h.26c.77,.17,1.2,.77,1.2,2.05,0,.51-.09,1.11-.26,1.79-.09,.34-.09,.68-.09,.94,0,.34,0,.51,.09,.77,.09,.51,.6,.77,1.37,.85h.17c3.76,0,11.71-4.44,14.7-6.49,.17-.09,.26-.17,.43-.17s.43,.17,.51,.34c.09,.08,.09,.17,.09,.26,0,.26-.17,.43-.43,.6-3.33,2.05-11.02,6.84-15.21,6.84h-.34c-1.37,0-2.31-.6-2.73-1.88-.09-.26-.09-.6-.09-.94s0-.85,.17-1.37c.17-.77,.26-1.37,.26-1.79s-.09-.68-.34-.77h-.09c-.77,0-2.65,1.54-4.7,3.16-2.73,2.05-5.64,4.61-7.86,4.61h-.26Z" style="fill:#fff; stroke:#fff; stroke-miterlimit:10; stroke-width:2px;"/><path d="M263.4,259.11c0-.6,.17-1.37,.6-2.22,.34-.77,1.03-1.71,1.97-2.65,2.56-2.39,6.84-4.36,10.34-4.36h.43c.68,0,1.37,.09,1.88,.34,.43,.17,.77,.34,1.03,.68s.43,.77,.43,1.2c0,.26-.09,.51-.17,.68v.08c-.51,1.28-3.16,2.65-5.81,3.16-.77,.17-1.54,.26-2.22,.26h-.68c-1.03-.08-1.88-.34-2.48-.77-.34-.26-.6-.6-.77-1.03-.34,.26-.68,.51-.94,.77-.85,.85-1.37,1.54-1.71,2.22-.26,.6-.43,1.03-.43,1.45,0,1.2,1.03,1.79,2.48,2.14,.85,.17,1.88,.26,2.91,.26,7.26,0,17.86-4.02,23.07-7.26,.17-.09,.26-.17,.43-.17s.34,.17,.51,.34c.09,.08,.09,.17,.09,.26,0,.26-.09,.43-.34,.6-5.9,3.76-15.55,7.52-23.33,7.52-1.2,0-2.31-.09-3.42-.26-2.22-.34-3.85-1.37-3.85-3.25Zm12.99-7.86c-2.56,0-5.38,1.28-7.52,2.56,.34,1.03,1.37,1.37,2.56,1.37,2.91,0,7.09-2.14,7.09-2.99,0-.34-.43-.85-1.88-.94h-.26Z" style="fill:#fff; stroke:#fff; stroke-miterlimit:10; stroke-width:2px;"/><path d="M296.3,263.39c-2.91,0-4.36-1.37-4.36-3.33,0-1.03,.43-2.22,1.11-3.59,.26-.51,.51-.94,.68-1.28l-.26,.08c-.09,.08-.26,.08-.34,.08-.26,0-.51-.08-.6-.34-.09-.08-.09-.26-.09-.34,0-.26,.09-.51,.34-.6,.51-.34,1.03-.6,1.28-.6h.26c.6,0,.85,.26,.94,.85v.17c0,.85-.43,1.71-.94,2.65-.6,1.11-.94,2.05-.94,2.91,0,1.45,.94,2.48,2.99,2.48,.26,0,.6-.08,.85-.08,5.73-.6,14.44-5.64,18.97-8.37,.09-.09,.26-.09,.34-.09,.26,0,.51,.09,.6,.34,.09,.09,.09,.17,.09,.26,0,.26-.17,.43-.43,.6-5.38,2.82-13.5,7.43-19.4,8.12-.43,0-.77,.09-1.11,.09Zm-.26-14.19c-.26-.34-.43-.68-.43-1.2v-.34c.09-.51,.43-1.03,.94-1.37,.43-.34,.94-.51,1.54-.51h.43c.43,.09,.85,.34,1.11,.6,.34,.34,.51,.77,.51,1.2,0,.17,0,.26-.09,.34v.09c-.09,.51-.43,1.03-.85,1.37-.43,.26-1.03,.51-1.62,.51-.09,0-.26,0-.34-.08-.51-.08-.85-.26-1.2-.6Z" style="fill:#fff; stroke:#fff; stroke-miterlimit:10; stroke-width:2px;"/><path d="M314.84,263.56c-1.2,0-1.54-1.28-1.54-2.48,0-.43,0-.85,.09-1.2,.26-1.54,.94-3.5,2.22-5.55,.17-.26,.43-.34,.68-.34,.09,0,.26,0,.34,.09,.26,.09,.34,.34,.34,.6,0,.09,0,.26-.09,.34-1.2,1.97-1.88,3.76-2.14,5.13,0,.34-.09,.6-.09,.94,0,.26,.09,.43,.09,.68,0,.34,.26,.51,.51,.51s.51-.17,.77-.34c2.31-1.62,4.7-3.67,7.01-5.55,1.54-1.28,5.64-4.87,8.03-4.87,.6,0,1.03,.17,1.37,.6,.34,.43,.51,1.11,.51,1.88,0,1.28-.43,2.99-.94,4.96-.17,.51-.26,1.11-.26,1.62,0,1.11,.51,1.96,1.88,2.05h.43c4.96,0,15.47-6.07,19.4-8.54,.08-.09,.17-.09,.34-.09,.26,0,.51,.09,.6,.26,.08,.08,.08,.17,.08,.26,0,.26-.17,.43-.43,.6-4.27,2.82-14.36,8.54-19.91,8.54h-.6c-2.31-.17-3.16-1.45-3.16-3.16,0-.6,.09-1.28,.26-1.88,.51-1.97,.94-3.59,.94-4.62,0-.51-.09-.85-.26-1.03-.17-.17-.34-.26-.68-.26-3.08,0-13.33,10.68-15.64,10.85h-.17Z" style="fill:#fff; stroke:#fff; stroke-miterlimit:10; stroke-width:2px;"/><path d="M350.39,259.11c0-.6,.17-1.37,.6-2.22,.34-.77,1.03-1.71,1.97-2.65,2.56-2.39,6.84-4.36,10.34-4.36h.43c.68,0,1.37,.09,1.88,.34,.43,.17,.77,.34,1.03,.68,.26,.34,.43,.77,.43,1.2,0,.26-.08,.51-.17,.68v.08c-.51,1.28-3.16,2.65-5.81,3.16-.77,.17-1.54,.26-2.22,.26h-.68c-1.03-.08-1.88-.34-2.48-.77-.34-.26-.6-.6-.77-1.03-.34,.26-.68,.51-.94,.77-.86,.85-1.37,1.54-1.71,2.22-.26,.6-.43,1.03-.43,1.45,0,1.2,1.03,1.79,2.48,2.14,.85,.17,1.88,.26,2.9,.26,7.26,0,17.86-4.02,23.07-7.26,.17-.09,.26-.17,.43-.17s.34,.17,.51,.34c.09,.08,.09,.17,.09,.26,0,.26-.09,.43-.34,.6-5.9,3.76-15.55,7.52-23.33,7.52-1.2,0-2.31-.09-3.42-.26-2.22-.34-3.85-1.37-3.85-3.25Zm12.99-7.86c-2.56,0-5.38,1.28-7.52,2.56,.34,1.03,1.37,1.37,2.56,1.37,2.9,0,7.09-2.14,7.09-2.99,0-.34-.43-.85-1.88-.94h-.26Z" style="fill:#fff; stroke:#fff; stroke-miterlimit:10; stroke-width:2px;"/><path d="M457.03,248.18c9.57,2.73,13.24,6.58,13.24,10.51,0,6.92-11.79,13.84-22.81,13.84h-.51c-3.67-.09-5.21-1.71-5.21-3.67,0-2.31,2.05-5.13,4.96-6.75,2.22-1.28,5.13-1.97,7.86-1.97,4.19,0,8.12,1.62,9.66,5.81,3.42-2.14,4.79-4.27,4.79-6.32,0-4.79-7.61-8.8-13.07-10.25-.6-.17-1.11-.34-1.45-.43l-.34-.09c-.34,.09-.6,.09-.77,.09-.43,0-.6-.17-.6-.43-.34-.08-.51-.26-.51-.34,0-.17,.43-.43,1.71-.68,16.15-4.02,25.38-9.23,29.48-14.61,1.62-2.22,2.39-4.44,2.39-6.58,0-.34-.09-.68-.09-1.03-1.45-11.28-17.6-15.81-29.14-16.41-1.37-.08-2.65-.08-4.02-.08-12.3,0-24.27,2.82-33.41,7.26-10,4.87-16.41,12.39-16.41,19.57,0,5.47,3.59,10.68,12.05,14.53,.26,.08,.43,.34,.43,.6,0,.08,0,.26-.08,.34-.08,.26-.43,.43-.68,.43-.08,0-.17,0-.26-.08-9.06-4.1-12.9-9.74-12.9-15.64,0-7.78,6.67-15.81,17.26-21.02,9.14-4.44,21.02-6.75,33.24-6.75,1.62,0,3.16,0,4.79,.08,9.74,.43,28.97,4.87,30.51,17.01,.09,.43,.09,.85,.09,1.28,0,2.39-.86,4.87-2.65,7.35-4.02,5.3-12.65,10.42-27.51,14.44Zm-9.48-7.18c-3.08,7.09-5.64,14.27-7.26,20.59-.17,.26-.43,.51-.77,.51h-.17c-.26-.17-.51-.34-.51-.68,0-.08,.09-.17,.09-.26,1.71-6.32,4.19-13.59,7.35-20.76,2.73-6.24,5.98-12.39,9.66-17.86,.09-.17,.34-.34,.51-.34s.26,.09,.43,.17c.17,.08,.34,.34,.34,.51s-.08,.26-.17,.43c-3.5,5.38-6.75,11.45-9.48,17.69Zm-.34,30.08c4.53,0,11.79-2.22,15.81-4.36-1.28-3.76-4.79-5.21-8.46-5.21-2.56,0-5.21,.68-7.18,1.79-2.31,1.28-4.27,3.59-4.27,5.38,0,1.28,1.11,2.31,3.84,2.39h.26Z" style="fill:#fff; stroke:#fff; stroke-miterlimit:10; stroke-width:2px;"/><path d="M481.63,263.39c-1.79-.09-2.48-.94-2.48-2.22,0-3.5,5.81-10.17,10.77-11.45v-.09c.86-.17,1.62-.26,2.31-.26,.43,0,.77,0,1.11,.08,1.11,.26,1.97,.68,2.39,1.45,.34,.51,.51,1.2,.51,1.88,0,.34-.26,.68-.6,.68h-.17c-.43,0-.68-.34-.68-.68,0-.43-.09-.77-.26-1.11-.26-.43-.77-.68-1.45-.77-.34-.08-.68-.08-1.03-.08-.51,0-1.11,.08-1.71,.26h-.09c-3.84,.94-9.57,7.26-9.57,10,0,.68,.26,1.11,.94,1.28,.17,.08,.34,.08,.6,.08,3.59,0,12.99-6.84,14.01-7.6,1.2-.86,1.96-1.2,2.65-1.2,.77,0,1.37,.43,1.96,1.28,.34,.51,.68,1.11,1.03,1.71,1.88,3.59,4.19,4.87,6.67,4.87,4.61,0,9.83-4.53,13.84-7.43,.17-.09,.26-.17,.43-.17s.43,.17,.51,.34c.08,.08,.08,.26,.08,.34,0,.17-.08,.34-.34,.51-4.44,3.08-9.91,7.52-14.78,7.52-2.82,0-5.38-1.45-7.6-5.3-.34-.6-.68-1.11-.94-1.54-.34-.51-.77-.77-1.28-.77-.43,0-.94,.17-1.62,.68-1.54,1.11-10.42,7.69-14.95,7.69h-.26Z" style="fill:#fff; stroke:#fff; stroke-miterlimit:10; stroke-width:2px;"/><path d="M516.15,264.5c0-.08-.09-.26-.09-.34,0-.51,.26-1.2,.77-2.05,.6-.85,1.37-1.97,2.31-2.99,.94-1.71,2.05-3.67,3.42-5.9,.17-.17,.43-.26,.68-.26,.09,0,.26,0,.34,.09,.17,.09,.34,.34,.34,.51s-.08,.26-.17,.43c-.34,.6-.68,1.2-1.03,1.71,2.99-2.39,6.84-4.36,10.77-4.44h.34c.94,0,1.28,.34,1.28,.94,0,.43-.34,.85-.77,1.28-.43,.6-1.03,1.2-1.03,1.88v.34c0,.26-.26,.51-.51,.6h-.17c-.34,0-.6-.26-.68-.51,0-.17-.09-.34-.09-.51,0-1.11,.77-1.97,1.37-2.56-5.13,.26-9.91,3.93-12.9,7.18v.09c-.51,.85-1.03,1.71-1.37,2.48-.51,.94-1.03,1.79-1.37,2.48-.09,.26-.34,.34-.6,.34-.08,0-.26,0-.34-.08-.26-.08-.51-.34-.51-.68Zm16.41-.77c0-.51,.26-1.2,.77-1.97,.43-.77,1.11-1.71,1.96-2.65,.85-1.54,1.88-3.25,3.08-5.13,.17-.26,.43-.34,.68-.34,.09,0,.26,0,.34,.09,.17,.17,.34,.34,.34,.6,0,.17-.09,.26-.17,.43-.26,.34-.43,.77-.68,1.11,2.65-1.97,5.81-3.59,9.23-3.76,1.11,0,1.54,.34,1.54,.94,0,.43-.26,.77-.68,1.2-.43,.51-.94,1.11-.94,1.62v.26c0,.34-.26,.6-.51,.68h-.17c-.34,0-.6-.26-.68-.6v-.34c0-.94,.51-1.71,1.03-2.31-4.36,.34-8.54,3.59-11.19,6.41-.43,.85-.85,1.54-1.2,2.22-.43,.86-.85,1.62-1.2,2.22-.08,.26-.34,.34-.6,.34-.08,0-.26,0-.34-.09-.26-.09-.43-.34-.51-.6,0-.09-.09-.26-.09-.34Z" style="fill:#fff; stroke:#fff; stroke-miterlimit:10; stroke-width:2px;"/><path d="M554.09,263.39c-1.79-.09-2.48-.94-2.48-2.22,0-3.5,5.81-10.17,10.77-11.45v-.09c.86-.17,1.62-.26,2.31-.26,.43,0,.77,0,1.11,.08,1.11,.26,1.97,.68,2.39,1.45,.34,.51,.51,1.2,.51,1.88,0,.34-.26,.68-.6,.68h-.17c-.43,0-.68-.34-.68-.68,0-.43-.09-.77-.26-1.11-.26-.43-.77-.68-1.45-.77-.34-.08-.68-.08-1.03-.08-.51,0-1.11,.08-1.71,.26h-.09c-3.84,.94-9.57,7.26-9.57,10,0,.68,.26,1.11,.94,1.28,.17,.08,.34,.08,.6,.08,3.59,0,12.99-6.84,14.01-7.6,1.2-.86,1.96-1.2,2.65-1.2,.77,0,1.37,.43,1.96,1.28,.34,.51,.68,1.11,1.03,1.71,1.88,3.59,4.19,4.87,6.67,4.87,4.61,0,9.83-4.53,13.84-7.43,.17-.09,.26-.17,.43-.17s.43,.17,.51,.34c.08,.08,.08,.26,.08,.34,0,.17-.08,.34-.34,.51-4.44,3.08-9.91,7.52-14.78,7.52-2.82,0-5.38-1.45-7.6-5.3-.34-.6-.68-1.11-.94-1.54-.34-.51-.77-.77-1.28-.77-.43,0-.94,.17-1.62,.68-1.54,1.11-10.42,7.69-14.95,7.69h-.26Z" style="fill:#fff; stroke:#fff; stroke-miterlimit:10; stroke-width:2px;"/><path d="M594.85,263.81c-1.96,0-2.9-1.37-2.9-3.25,0-4.27,4.7-11.19,11.62-11.19h.17c2.05,0,3.67,1.11,4.02,4.36,4.36-4.53,8.37-9.74,11.96-14.95,2.99-5.21,6.49-10.17,9.31-13.59,.17-.17,.34-.26,.51-.26s.34,.09,.43,.17c.17,.08,.34,.34,.34,.51s-.08,.34-.17,.43c-2.99,4.02-5.13,7.26-7.18,10.25-.68,1.11-1.37,2.14-2.14,3.25-1.37,2.39-7.6,13.33-7.6,19.31,0,2.05,.68,3.59,2.65,3.93,.34,.08,.68,.08,1.03,.08,5.72,0,16.23-7.43,18.12-8.8,.08-.09,.26-.09,.34-.09,.26,0,.51,.09,.68,.26,0,.08,.08,.08,.08,.17,0,.26-.34,.51-.51,.68-2.56,1.62-12.99,8.72-19.23,8.72h-.68c-2.9-.34-3.84-2.39-3.84-4.96,0-3.93,2.22-9.14,3.25-11.45-4.19,5.3-10.42,12.48-16.41,15.3-1.54,.77-2.82,1.11-3.85,1.11Zm8.54-13.07c-5.38,0-10.17,6.84-10.17,10.17,0,1.11,.51,1.88,1.71,1.88,.68,0,1.62-.26,2.82-.85,3.25-1.54,6.75-4.87,9.31-7.43-.43,0-.77-.26-.77-.68-.26-2.22-1.28-3.08-2.73-3.08h-.17Z" style="fill:#fff; stroke:#fff; stroke-miterlimit:10; stroke-width:2px;"/><path d="M633.21,263.39c-1.79-.09-2.48-.94-2.48-2.22,0-3.5,5.81-10.17,10.77-11.45v-.09c.85-.17,1.62-.26,2.31-.26,.43,0,.77,0,1.11,.08,1.11,.26,1.96,.68,2.39,1.45,.34,.51,.51,1.2,.51,1.88,0,.34-.26,.68-.6,.68h-.17c-.43,0-.68-.34-.68-.68,0-.43-.08-.77-.26-1.11-.26-.43-.77-.68-1.45-.77-.34-.08-.68-.08-1.03-.08-.51,0-1.11,.08-1.71,.26h-.08c-3.85,.94-9.57,7.26-9.57,10,0,.68,.26,1.11,.94,1.28,.17,.08,.34,.08,.6,.08,3.59,0,12.99-6.84,14.01-7.6,1.2-.86,1.97-1.2,2.65-1.2,.77,0,1.37,.43,1.97,1.28,.34,.51,.68,1.11,1.03,1.71,1.88,3.59,4.19,4.87,6.66,4.87,4.62,0,9.83-4.53,13.84-7.43,.17-.09,.26-.17,.43-.17s.43,.17,.51,.34c.09,.08,.09,.26,.09,.34,0,.17-.09,.34-.34,.51-4.44,3.08-9.91,7.52-14.78,7.52-2.82,0-5.38-1.45-7.61-5.3-.34-.6-.68-1.11-.94-1.54-.34-.51-.77-.77-1.28-.77-.43,0-.94,.17-1.62,.68-1.54,1.11-10.42,7.69-14.95,7.69h-.26Z" style="fill:#fff; stroke:#fff; stroke-miterlimit:10; stroke-width:2px;"/><path d="M667.05,263.98v-.34c.26-1.28,3.67-2.22,8.12-3.42l.6-.17c-.26-1.03-.68-2.14-1.03-3.25-.6-1.45-1.11-2.91-1.11-4.1,0-.34,.26-.85,.51-1.2,.26-.34,.6-.6,1.11-.68,.34,0,.68,.26,.77,.68,0,.34-.26,.68-.68,.77l-.08,.09-.17,.34c0,.94,.43,2.22,.94,3.67,.43,1.11,.86,2.22,1.11,3.33,4.96-1.37,10.94-3.08,15.12-5.64,.08-.09,.17-.09,.34-.09,.26,0,.51,.09,.6,.34,0,.09,.09,.09,.09,.17,0,.17-.26,.43-.51,.6-4.36,2.65-10.34,4.7-15.47,6.07,0,.43-.08,.94-.17,1.37-.26,1.03-1.11,1.88-2.14,2.39-1.11,.6-2.56,.86-3.84,.86h-.68c-.6,0-1.03,0-1.37-.09-.6-.09-1.11-.26-1.37-.51-.43-.34-.68-.77-.68-1.2Zm1.54,0c.09,.17,.34,.26,.77,.34,.43,.09,1.03,.09,1.71,.09,1.2-.09,2.39-.26,3.33-.77,.68-.34,1.2-.85,1.37-1.45,.09-.17,.09-.43,.09-.68l-.26,.09c-4.02,1.11-7.01,1.88-7.09,2.31q0,.09,.09,.09Z" style="fill:#fff; stroke:#fff; stroke-miterlimit:10; stroke-width:2px;"/></g><g><g><path d="M261.28,74.09c6.73-9.18,14.25-17.96,23.11-25.16,3.13-2.55,6.49-4.88,10.03-6.86,1.56-.87,3.15-1.67,4.78-2.39,.67-.29,1.15-.49,2-.82,.72-.27,1.44-.53,2.16-.77,1.4-.46,2.82-.85,4.25-1.16,.65-.14,1.31-.27,1.97-.38,.31-.05,.62-.1,.93-.15,.44-.07-.16,.02,.2-.03,.16-.02,.32-.04,.48-.06,2.87-.33,5.76-.31,8.64-.13,10.2,.62,20.34,2.98,30.26,5.54,12.84,3.31,26.49,6.65,39.7,3.39,4.81-1.19,9.72-3.71,12.89-7.59,1.53-1.87,2.71-4.06,3.08-6.48,.4-2.66-.05-5.3-1.3-7.68-2.72-5.16-8.33-7.89-13.97-8.25-5.92-.38-11.93,1.54-17.16,4.21-9.81,5-17.49,13.52-23.27,22.76-6.74,10.78-11,22.87-15.79,34.58-4.37,10.69-9.33,21.36-16.82,30.26-3.5,4.16-7.51,7.9-12.1,10.82-3.78,2.4-8.54,4.77-13.06,3.88-1.89-.37-3.54-1.34-4.35-3.19-1-2.28-.22-5.06,1.22-6.96,1.61-2.15,4.18-3.47,6.66-4.32s4.81-1.29,7.29-1.5c9.4-.78,19,1.34,27.93,4.11,3.73,1.16,7.39,2.55,11.08,3.82,5.02,1.73,10.07,3.37,15.16,4.85s10.18,2.9,15.39,3.71c3.18,.49,6.43,.55,9.64,.43,7.89-.29,16.6-2.03,22.39-7.82,6.81-6.8,7.16-17.54,3.78-26.08-1.81-4.56-4.59-8.78-8.36-11.95-4.26-3.59-9.46-5.57-14.99-6.02-4.43-.36-8.95,.26-13.22,1.45-3.81,1.06-7.55,2.55-10.95,4.58-3.67,2.2-6.99,5-9.82,8.21-.53,.6-.59,1.51,0,2.1,.54,.54,1.57,.61,2.1,0,2.88-3.27,6.24-6.07,10.04-8.22,3.17-1.79,6.63-3.08,10.15-4,4.23-1.1,8.61-1.6,12.99-1.01,5.08,.69,9.77,3,13.36,6.66,6.23,6.35,9.54,16.45,7,25.08-1.16,3.92-3.67,7.22-7.03,9.41s-7.06,3.32-11,4c-4.44,.77-9.58,.91-14.3,.44-.14-.01-.28-.03-.42-.05-.35-.04,.02,0,.1,.01-.12-.02-.25-.04-.38-.05-.66-.1-1.32-.21-1.98-.34-2.38-.45-4.75-1-7.1-1.6-9.59-2.45-19-5.61-28.3-8.97-7.41-2.68-15.17-4.63-23.01-5.5-5.08-.56-10.3-.62-15.31,.51-5.41,1.22-11.2,4.02-13.02,9.67-.82,2.55-.66,5.53,.88,7.78,1.33,1.94,3.38,3.2,5.68,3.64,4.96,.93,9.88-.98,14.08-3.47,9.57-5.68,16.78-14.57,22.27-24.1,6.21-10.76,10.29-22.55,15.05-33.98,4.47-10.73,9.69-21.33,17.61-29.97,3.58-3.91,7.65-7.38,12.25-10.04s10.33-4.83,15.91-4.92c5.29-.08,10.73,2.07,13.23,7,1.02,2.02,1.23,4.37,.62,6.52s-1.9,3.9-3.47,5.39c-3.76,3.56-8.8,5.24-13.82,6-6.47,.97-13.13,.44-19.54-.68-6.59-1.15-13.02-3.01-19.52-4.58-5.36-1.3-10.77-2.46-16.22-3.32-6.77-1.06-13.71-1.82-20.53-.81-6.27,.93-12.25,3.37-17.7,6.56-8.11,4.76-15.18,11.2-21.49,18.12-4.15,4.55-7.98,9.38-11.62,14.34-.48,.65-.11,1.66,.53,2.04,.75,.44,1.56,.12,2.04-.53h0Z" style="fill:#fff; stroke:#fff; stroke-miterlimit:10;"/><path d="M385.49,122.99c8.28,3.18,16.43,9.89,17.71,19.14,.6,4.34-.57,8.79-2.79,12.51-.31,.52-.64,1.02-.99,1.51-.1,.14-.2,.27-.3,.4,.26-.34-.16,.19-.21,.26-.16,.19-.32,.38-.49,.57-1.24,1.41-2.62,2.61-4.1,3.62-6.86,4.69-15.59,6.15-23.8,5.95-8.77-.21-17.39-2.43-25.05-6.74-2.88-1.62-5.65-3.43-8.43-5.22-4.58-2.95-9.15-6.06-14.13-8.28-5.37-2.39-11.18-3.81-17.06-2.89-4.76,.74-9.72,3.52-11.68,8.11s-.12,9.65,3.68,12.72c1.89,1.52,4.11,2.65,6.5,3.15,2.6,.54,5.32,.35,7.9-.21,5.29-1.14,9.89-4.17,13.91-7.68,3.63-3.17,7.01-6.63,10.22-10.22,6.82-7.61,12.96-15.83,18.72-24.26,4.75-6.93,9.24-14.04,13.53-21.26,.72-1.22,1.44-2.44,2.15-3.66,.96-1.66-1.61-3.16-2.57-1.5-3.74,6.43-7.63,12.77-11.71,18.99-5.42,8.27-11.15,16.35-17.43,23.99-3.15,3.83-6.44,7.55-9.95,11.06s-7.06,6.9-11.35,9.27-9.48,3.78-14.16,2.21c-3.81-1.28-7.52-4.73-7.31-9.01,.23-4.56,4.79-7.53,8.81-8.51,5.36-1.31,11.1,.01,16.05,2.19s9.51,5.26,14.06,8.19c2.8,1.8,5.58,3.63,8.48,5.27,7.78,4.41,16.44,6.81,25.37,7.24s17.59-.9,25.05-5.23c6.57-3.82,11.13-10.19,12.05-17.8,1.19-9.75-5.09-18.37-13.02-23.34-2.17-1.36-4.49-2.46-6.88-3.38-.75-.29-1.63,.32-1.83,1.04-.23,.84,.29,1.54,1.04,1.83h0Z" style="fill:#fff; stroke:#fff; stroke-miterlimit:10;"/></g><path d="M347.1,180.66c-49.67,0-90.08-40.41-90.08-90.08S297.43,.5,347.1,.5s90.08,40.41,90.08,90.08-40.41,90.08-90.08,90.08Zm0-177.57c-48.24,0-87.49,39.25-87.49,87.49s39.25,87.49,87.49,87.49,87.49-39.25,87.49-87.49S395.34,3.1,347.1,3.1Z" style="fill:#fff; stroke:#fff; stroke-miterlimit:10;"/></g></g></svg>