<?xml version="1.0" encoding="UTF-8"?><svg id="Camada_2" xmlns="http://www.w3.org/2000/svg" viewBox="0 0 834.34 168.81"><g id="Camada_1-2"><g><path d="M230.66,86.8c-4,1.12-6.97,1.68-9.05,1.68-.8,0-1.52-.08-2.08-.24-1.52-.32-2.72-1.2-2.72-2.64,0-.24,0-.48,.08-.72,.88-4,6.32-7.85,11.53-9.61,1.44-.48,3.36-.88,5.2-.88,2.72,0,5.12,.96,5.12,4.16v.4c0,.4-.32,.64-.72,.64-.32,0-.64-.32-.64-.72v-.24c0-2.32-1.76-2.96-3.76-2.96-1.68,0-3.6,.48-4.8,.88-4.8,1.6-9.85,5.12-10.57,8.57,0,.16-.08,.32-.08,.4,0,.88,.72,1.2,1.6,1.44,.48,.08,1.04,.16,1.76,.16,2,0,4.8-.48,8.81-1.6,13.61-3.92,26.58-14.49,33.07-25.54,3.04-5.12,4.4-9.61,4.4-13.53,0-10.97-11.05-16.81-26.1-17.53-1.44-.08-2.8-.08-4.24-.08-11.37,0-22.82,2.24-32.03,6.4-9.13,4.08-19.46,12.81-19.46,21.06,0,4.08,2.56,8.01,8.97,11.21,.24,.08,.4,.32,.4,.56,0,.08,0,.24-.08,.32-.08,.24-.4,.4-.64,.4-.08,0-.16,0-.24-.08-6.97-3.44-9.69-7.77-9.69-12.17,0-8.65,10.41-17.85,20.18-22.18,9.37-4.16,20.9-6.32,32.35-6.32,1.52,0,3.04,0,4.48,.08,15.85,.8,27.38,6.97,27.38,18.41,0,4.08-1.44,8.73-4.56,14.09-6.56,11.29-19.94,22.18-33.87,26.18Zm-14.09-9.61c-.16,0-.24,0-.32-.08-.24-.16-.32-.4-.32-.64,0-.08,0-.24,.08-.32,1.76-2.8,3.6-5.92,5.52-9.05,5.84-9.53,11.85-19.38,17.29-26.98,.16-.16,.32-.32,.56-.32,.16,0,.24,.08,.4,.16,.16,.16,.24,.32,.24,.56,0,.08-.08,.24-.16,.4-5.36,7.53-11.37,17.37-17.21,26.9-1.84,3.04-3.68,6-5.52,9.05-.08,.24-.32,.32-.56,.32Z" style="fill:#fff; stroke:#fff; stroke-miterlimit:10; stroke-width:2px;"/><path d="M263.8,80.96c0-.08-.08-.24-.08-.32,0-.48,.32-1.12,.8-1.92s1.2-1.84,2.08-2.8c.88-1.6,1.92-3.44,3.2-5.52,.16-.16,.4-.24,.64-.24,.08,0,.24,0,.32,.08,.16,.08,.32,.32,.32,.48s-.08,.24-.16,.4c-.32,.56-.64,1.12-.96,1.6,2.8-2.24,6.41-4.08,10.09-4.16h.32c.88,0,1.2,.32,1.2,.88,0,.4-.32,.8-.72,1.2-.4,.56-.96,1.12-.96,1.76v.32c0,.24-.24,.48-.48,.56h-.16c-.32,0-.56-.24-.64-.48,0-.16-.08-.32-.08-.48,0-1.04,.72-1.84,1.28-2.4-4.8,.24-9.29,3.68-12.09,6.73v.08c-.48,.8-.96,1.6-1.28,2.32-.48,.88-.96,1.68-1.28,2.32-.08,.24-.32,.32-.56,.32-.08,0-.24,0-.32-.08-.24-.08-.48-.32-.48-.64Z" style="fill:#fff; stroke:#fff; stroke-miterlimit:10; stroke-width:2px;"/><path d="M285.74,79.92c-1.68-.08-2.32-.88-2.32-2.08,0-3.28,5.44-9.53,10.09-10.73v-.08c.8-.16,1.52-.24,2.16-.24,.4,0,.72,0,1.04,.08,1.04,.24,1.84,.64,2.24,1.36,.32,.48,.48,1.12,.48,1.76,0,.32-.24,.64-.56,.64h-.16c-.4,0-.64-.32-.64-.64,0-.4-.08-.72-.24-1.04-.24-.4-.72-.64-1.36-.72-.32-.08-.64-.08-.96-.08-.48,0-1.04,.08-1.6,.24h-.08c-3.6,.88-8.97,6.8-8.97,9.37,0,.64,.24,1.04,.88,1.2,.16,.08,.32,.08,.56,.08,3.36,0,12.17-6.41,13.13-7.13,1.12-.8,1.84-1.12,2.48-1.12,.72,0,1.28,.4,1.84,1.2,.32,.48,.64,1.04,.96,1.6,1.76,3.36,3.92,4.56,6.24,4.56,4.32,0,9.21-4.24,12.97-6.97,.16-.08,.24-.16,.4-.16s.4,.16,.48,.32c.08,.08,.08,.24,.08,.32,0,.16-.08,.32-.32,.48-4.16,2.88-9.29,7.05-13.85,7.05-2.64,0-5.04-1.36-7.12-4.96-.32-.56-.64-1.04-.88-1.44-.32-.48-.72-.72-1.2-.72-.4,0-.88,.16-1.52,.64-1.44,1.04-9.77,7.21-14.01,7.21h-.24Z" style="fill:#fff; stroke:#fff; stroke-miterlimit:10; stroke-width:2px;"/><path d="M328.01,80c.08,.16,.08,.32,.08,.4,0,.32-.08,.56-.24,.8-.16,.16-.24,.4-.4,.48-.4,.4-.96,.72-1.44,.88-.24,.08-.48,.08-.8,.08s-.56,0-.8-.16c-.08-.08-.16-.16-.24-.16,0-.08-.08-.08-.08-.16-.24-.24-.32-.56-.32-.88,0-.24,.08-.48,.16-.72,.16-.48,.4-.96,.8-1.36h.08c.08-.16,.24-.24,.4-.4,.16-.08,.24-.16,.4-.16,.24,0,.48,.16,.64,.32,0,0,0,.08,.08,.08h.56c.24,0,.48,.16,.64,.32,.24,.16,.4,.4,.48,.64Zm-1.44,.48c-.08,0-.24,.08-.4,.16-.08,.08-.24,.16-.4,.16s-.24,0-.32-.08c-.08,.08-.16,.24-.16,.32-.08,.08-.08,.16-.08,.16h.4c.24-.16,.56-.32,.8-.48,.08-.08,.08-.16,.16-.24Z" style="fill:#fff; stroke:#fff; stroke-miterlimit:10; stroke-width:2px;"/><path d="M396.62,29.16c0-1.76-.64-3.2-1.84-3.28h-.32c-9.69,0-43.23,30.98-44.03,39.87v.32c0,2.48,2.32,3.92,6.24,6.17,.24,.08,.4,.4,.4,.64,0,.08,0,.16-.08,.24-.16,.24-.4,.32-.64,.32-.08,0-.24,0-.32-.08-4.32-2.32-6.96-4.08-6.96-7.13v-.56c.88-9.45,34.67-40.51,45.48-40.51h.4c1.84,.16,2.96,1.2,2.96,3.52v.48c-.16,3.52-2.64,9.77-8.65,19.94-8.97,15.05-15.93,25.38-21.22,32.43,10.17,0,20.42,2.24,30.5,2.24,.32,0,.64,.24,.64,.64,0,.32-.32,.64-.64,.64-10.25,0-20.66-2.24-30.98-2.24h-.56c-1.44,1.92-8.89,11.53-12.73,11.53-.4,0-.72-.08-1.04-.32-.96-.64-1.44-1.52-1.44-2.48,0-4.08,7.45-9.85,14.57-10.01,5.28-6.88,12.41-17.45,21.7-33.15,5.92-9.93,8.41-16.01,8.57-19.22Zm-42.19,63.97c2.56,0,9.93-9.13,10.89-10.25-6,.24-12.09,5.68-12.09,8.65,0,.56,.24,1.12,.72,1.44,.16,.08,.24,.16,.48,.16Z" style="fill:#fff; stroke:#fff; stroke-miterlimit:10; stroke-width:2px;"/><path d="M404.79,79.52c-1.28-.08-2.16-.88-2.16-2.16v-.16c.08-.72,.4-1.6,1.12-2.64,.48-.64,1.12-1.44,1.84-2.24,.72-.64,1.52-1.36,2.32-1.92,.08-.08,.24-.08,.32-.08,.24,0,.48,.08,.64,.32,.08,.08,.08,.16,.08,.32s-.08,.4-.32,.56c-.72,.48-1.44,1.12-2.08,1.76-.72,.72-1.28,1.44-1.76,2.08-.56,.8-.8,1.44-.8,1.92v.24c0,.56,.24,1.28,.96,1.28h.16c1.68,0,4.56-2.48,6.97-4.32,2.08-1.68,3.76-3.2,5.04-3.2h.24c.72,.16,1.12,.72,1.12,1.92,0,.48-.08,1.04-.24,1.68-.08,.32-.08,.64-.08,.88,0,.32,0,.48,.08,.72,.08,.48,.56,.72,1.28,.8h.16c3.52,0,10.97-4.16,13.77-6.08,.16-.08,.24-.16,.4-.16s.4,.16,.48,.32c.08,.08,.08,.16,.08,.24,0,.24-.16,.4-.4,.56-3.12,1.92-10.33,6.41-14.25,6.41h-.32c-1.28,0-2.16-.56-2.56-1.76-.08-.24-.08-.56-.08-.88s0-.8,.16-1.28c.16-.72,.24-1.28,.24-1.68s-.08-.64-.32-.72h-.08c-.72,0-2.48,1.44-4.4,2.96-2.56,1.92-5.28,4.32-7.37,4.32h-.24Z" style="fill:#fff; stroke:#fff; stroke-miterlimit:10; stroke-width:2px;"/><path d="M430.57,75.92c0-.56,.16-1.28,.56-2.08,.32-.72,.96-1.6,1.84-2.48,2.4-2.24,6.41-4.08,9.69-4.08h.4c.64,0,1.28,.08,1.76,.32,.4,.16,.72,.32,.96,.64,.24,.32,.4,.72,.4,1.12,0,.24-.08,.48-.16,.64v.08c-.48,1.2-2.96,2.48-5.44,2.96-.72,.16-1.44,.24-2.08,.24h-.64c-.96-.08-1.76-.32-2.32-.72-.32-.24-.56-.56-.72-.96-.32,.24-.64,.48-.88,.72-.8,.8-1.28,1.44-1.6,2.08-.24,.56-.4,.96-.4,1.36,0,1.12,.96,1.68,2.32,2,.8,.16,1.76,.24,2.72,.24,6.81,0,16.73-3.76,21.62-6.81,.16-.08,.24-.16,.4-.16s.32,.16,.48,.32c.08,.08,.08,.16,.08,.24,0,.24-.08,.4-.32,.56-5.52,3.52-14.57,7.05-21.86,7.05-1.12,0-2.16-.08-3.2-.24-2.08-.32-3.6-1.28-3.6-3.04Zm12.17-7.37c-2.4,0-5.04,1.2-7.04,2.4,.32,.96,1.28,1.28,2.4,1.28,2.72,0,6.65-2,6.65-2.8,0-.32-.4-.8-1.76-.88h-.24Z" style="fill:#fff; stroke:#fff; stroke-miterlimit:10; stroke-width:2px;"/><path d="M461.39,79.92c-2.72,0-4.08-1.28-4.08-3.12,0-.96,.4-2.08,1.04-3.36,.24-.48,.48-.88,.64-1.2l-.24,.08c-.08,.08-.24,.08-.32,.08-.24,0-.48-.08-.56-.32-.08-.08-.08-.24-.08-.32,0-.24,.08-.48,.32-.56,.48-.32,.96-.56,1.2-.56h.24c.56,0,.8,.24,.88,.8v.16c0,.8-.4,1.6-.88,2.48-.56,1.04-.88,1.92-.88,2.72,0,1.36,.88,2.32,2.8,2.32,.24,0,.56-.08,.8-.08,5.36-.56,13.53-5.28,17.77-7.85,.08-.08,.24-.08,.32-.08,.24,0,.48,.08,.56,.32,.08,.08,.08,.16,.08,.24,0,.24-.16,.4-.4,.56-5.04,2.64-12.65,6.97-18.17,7.61-.4,0-.72,.08-1.04,.08Zm-.24-13.29c-.24-.32-.4-.64-.4-1.12v-.32c.08-.48,.4-.96,.88-1.28,.4-.32,.88-.48,1.44-.48h.4c.4,.08,.8,.32,1.04,.56,.32,.32,.48,.72,.48,1.12,0,.16,0,.24-.08,.32v.08c-.08,.48-.4,.96-.8,1.28-.4,.24-.96,.48-1.52,.48-.08,0-.24,0-.32-.08-.48-.08-.8-.24-1.12-.56Z" style="fill:#fff; stroke:#fff; stroke-miterlimit:10; stroke-width:2px;"/><path d="M478.76,80.08c-1.12,0-1.44-1.2-1.44-2.32,0-.4,0-.8,.08-1.12,.24-1.44,.88-3.28,2.08-5.2,.16-.24,.4-.32,.64-.32,.08,0,.24,0,.32,.08,.24,.08,.32,.32,.32,.56,0,.08,0,.24-.08,.32-1.12,1.84-1.76,3.52-2,4.8,0,.32-.08,.56-.08,.88,0,.24,.08,.4,.08,.64,0,.32,.24,.48,.48,.48s.48-.16,.72-.32c2.16-1.52,4.4-3.44,6.57-5.2,1.44-1.2,5.28-4.56,7.53-4.56,.56,0,.96,.16,1.28,.56,.32,.4,.48,1.04,.48,1.76,0,1.2-.4,2.8-.88,4.64-.16,.48-.24,1.04-.24,1.52,0,1.04,.48,1.84,1.76,1.92h.4c4.64,0,14.49-5.68,18.17-8.01,.08-.08,.16-.08,.32-.08,.24,0,.48,.08,.56,.24,.08,.08,.08,.16,.08,.24,0,.24-.16,.4-.4,.56-4,2.64-13.45,8.01-18.65,8.01h-.56c-2.16-.16-2.96-1.36-2.96-2.96,0-.56,.08-1.2,.24-1.76,.48-1.84,.88-3.36,.88-4.32,0-.48-.08-.8-.24-.96s-.32-.24-.64-.24c-2.88,0-12.49,10.01-14.65,10.17h-.16Z" style="fill:#fff; stroke:#fff; stroke-miterlimit:10; stroke-width:2px;"/><path d="M512.07,75.92c0-.56,.16-1.28,.56-2.08,.32-.72,.96-1.6,1.84-2.48,2.4-2.24,6.41-4.08,9.69-4.08h.4c.64,0,1.28,.08,1.76,.32,.4,.16,.72,.32,.96,.64s.4,.72,.4,1.12c0,.24-.08,.48-.16,.64v.08c-.48,1.2-2.96,2.48-5.44,2.96-.72,.16-1.44,.24-2.08,.24h-.64c-.96-.08-1.76-.32-2.32-.72-.32-.24-.56-.56-.72-.96-.32,.24-.64,.48-.88,.72-.8,.8-1.28,1.44-1.6,2.08-.24,.56-.4,.96-.4,1.36,0,1.12,.96,1.68,2.32,2,.8,.16,1.76,.24,2.72,.24,6.81,0,16.73-3.76,21.62-6.81,.16-.08,.24-.16,.4-.16s.32,.16,.48,.32c.08,.08,.08,.16,.08,.24,0,.24-.08,.4-.32,.56-5.52,3.52-14.57,7.05-21.86,7.05-1.12,0-2.16-.08-3.2-.24-2.08-.32-3.6-1.28-3.6-3.04Zm12.17-7.37c-2.4,0-5.04,1.2-7.04,2.4,.32,.96,1.28,1.28,2.4,1.28,2.72,0,6.65-2,6.65-2.8,0-.32-.4-.8-1.76-.88h-.24Z" style="fill:#fff; stroke:#fff; stroke-miterlimit:10; stroke-width:2px;"/><path d="M611.98,65.67c8.97,2.56,12.41,6.17,12.41,9.85,0,6.49-11.05,12.97-21.38,12.97h-.48c-3.44-.08-4.88-1.6-4.88-3.44,0-2.16,1.92-4.8,4.64-6.32,2.08-1.2,4.8-1.84,7.37-1.84,3.92,0,7.61,1.52,9.05,5.44,3.2-2,4.48-4,4.48-5.92,0-4.48-7.13-8.25-12.25-9.61-.56-.16-1.04-.32-1.36-.4l-.32-.08c-.32,.08-.56,.08-.72,.08-.4,0-.56-.16-.56-.4-.32-.08-.48-.24-.48-.32,0-.16,.4-.4,1.6-.64,15.13-3.76,23.78-8.65,27.62-13.69,1.52-2.08,2.24-4.16,2.24-6.17,0-.32-.08-.64-.08-.96-1.36-10.57-16.49-14.81-27.3-15.37-1.28-.08-2.48-.08-3.76-.08-11.53,0-22.74,2.64-31.3,6.81-9.37,4.56-15.37,11.61-15.37,18.33,0,5.12,3.36,10.01,11.29,13.61,.24,.08,.4,.32,.4,.56,0,.08,0,.24-.08,.32-.08,.24-.4,.4-.64,.4-.08,0-.16,0-.24-.08-8.49-3.84-12.09-9.13-12.09-14.65,0-7.29,6.25-14.81,16.17-19.7,8.57-4.16,19.7-6.32,31.14-6.32,1.52,0,2.96,0,4.48,.08,9.13,.4,27.14,4.56,28.58,15.93,.08,.4,.08,.8,.08,1.2,0,2.24-.8,4.56-2.48,6.89-3.76,4.96-11.85,9.77-25.78,13.53Zm-8.89-6.72c-2.88,6.64-5.28,13.37-6.81,19.29-.16,.24-.4,.48-.72,.48h-.16c-.24-.16-.48-.32-.48-.64,0-.08,.08-.16,.08-.24,1.6-5.92,3.92-12.73,6.89-19.46,2.56-5.84,5.6-11.61,9.05-16.73,.08-.16,.32-.32,.48-.32s.24,.08,.4,.16,.32,.32,.32,.48-.08,.24-.16,.4c-3.28,5.04-6.33,10.73-8.89,16.57Zm-.32,28.18c4.24,0,11.05-2.08,14.81-4.08-1.2-3.52-4.48-4.88-7.93-4.88-2.4,0-4.88,.64-6.72,1.68-2.16,1.2-4,3.36-4,5.04,0,1.2,1.04,2.16,3.6,2.24h.24Z" style="fill:#fff; stroke:#fff; stroke-miterlimit:10; stroke-width:2px;"/><path d="M635.04,79.92c-1.68-.08-2.32-.88-2.32-2.08,0-3.28,5.44-9.53,10.09-10.73v-.08c.8-.16,1.52-.24,2.16-.24,.4,0,.72,0,1.04,.08,1.04,.24,1.84,.64,2.24,1.36,.32,.48,.48,1.12,.48,1.76,0,.32-.24,.64-.56,.64h-.16c-.4,0-.64-.32-.64-.64,0-.4-.08-.72-.24-1.04-.24-.4-.72-.64-1.36-.72-.32-.08-.64-.08-.96-.08-.48,0-1.04,.08-1.6,.24h-.08c-3.6,.88-8.97,6.8-8.97,9.37,0,.64,.24,1.04,.88,1.2,.16,.08,.32,.08,.56,.08,3.36,0,12.17-6.41,13.13-7.13,1.12-.8,1.84-1.12,2.48-1.12,.72,0,1.28,.4,1.84,1.2,.32,.48,.64,1.04,.96,1.6,1.76,3.36,3.92,4.56,6.24,4.56,4.32,0,9.21-4.24,12.97-6.97,.16-.08,.24-.16,.4-.16s.4,.16,.48,.32c.08,.08,.08,.24,.08,.32,0,.16-.08,.32-.32,.48-4.16,2.88-9.29,7.05-13.85,7.05-2.64,0-5.04-1.36-7.12-4.96-.32-.56-.64-1.04-.88-1.44-.32-.48-.72-.72-1.2-.72-.4,0-.88,.16-1.52,.64-1.44,1.04-9.77,7.21-14.01,7.21h-.24Z" style="fill:#fff; stroke:#fff; stroke-miterlimit:10; stroke-width:2px;"/><path d="M667.38,80.96c0-.08-.08-.24-.08-.32,0-.48,.24-1.12,.72-1.92,.56-.8,1.28-1.84,2.16-2.8,.88-1.6,1.92-3.44,3.2-5.52,.16-.16,.4-.24,.64-.24,.08,0,.24,0,.32,.08,.16,.08,.32,.32,.32,.48s-.08,.24-.16,.4c-.32,.56-.64,1.12-.96,1.6,2.8-2.24,6.41-4.08,10.09-4.16h.32c.88,0,1.2,.32,1.2,.88,0,.4-.32,.8-.72,1.2-.4,.56-.96,1.12-.96,1.76v.32c0,.24-.24,.48-.48,.56h-.16c-.32,0-.56-.24-.64-.48,0-.16-.08-.32-.08-.48,0-1.04,.72-1.84,1.28-2.4-4.8,.24-9.29,3.68-12.09,6.73v.08c-.48,.8-.96,1.6-1.28,2.32-.48,.88-.96,1.68-1.28,2.32-.08,.24-.32,.32-.56,.32-.08,0-.24,0-.32-.08-.24-.08-.48-.32-.48-.64Zm15.37-.72c0-.48,.24-1.12,.72-1.84,.4-.72,1.04-1.6,1.84-2.48,.8-1.44,1.76-3.04,2.88-4.8,.16-.24,.4-.32,.64-.32,.08,0,.24,0,.32,.08,.16,.16,.32,.32,.32,.56,0,.16-.08,.24-.16,.4-.24,.32-.4,.72-.64,1.04,2.48-1.84,5.44-3.36,8.65-3.52,1.04,0,1.44,.32,1.44,.88,0,.4-.24,.72-.64,1.12-.4,.48-.88,1.04-.88,1.52v.24c0,.32-.24,.56-.48,.64h-.16c-.32,0-.56-.24-.64-.56v-.32c0-.88,.48-1.6,.96-2.16-4.08,.32-8.01,3.36-10.49,6-.4,.8-.8,1.44-1.12,2.08-.4,.8-.8,1.52-1.12,2.08-.08,.24-.32,.32-.56,.32-.08,0-.24,0-.32-.08-.24-.08-.4-.32-.48-.56,0-.08-.08-.24-.08-.32Z" style="fill:#fff; stroke:#fff; stroke-miterlimit:10; stroke-width:2px;"/><path d="M702.92,79.92c-1.68-.08-2.32-.88-2.32-2.08,0-3.28,5.44-9.53,10.09-10.73v-.08c.8-.16,1.52-.24,2.16-.24,.4,0,.72,0,1.04,.08,1.04,.24,1.84,.64,2.24,1.36,.32,.48,.48,1.12,.48,1.76,0,.32-.24,.64-.56,.64h-.16c-.4,0-.64-.32-.64-.64,0-.4-.08-.72-.24-1.04-.24-.4-.72-.64-1.36-.72-.32-.08-.64-.08-.96-.08-.48,0-1.04,.08-1.6,.24h-.08c-3.6,.88-8.97,6.8-8.97,9.37,0,.64,.24,1.04,.88,1.2,.16,.08,.32,.08,.56,.08,3.36,0,12.17-6.41,13.13-7.13,1.12-.8,1.84-1.12,2.48-1.12,.72,0,1.28,.4,1.84,1.2,.32,.48,.64,1.04,.96,1.6,1.76,3.36,3.92,4.56,6.24,4.56,4.32,0,9.21-4.24,12.97-6.97,.16-.08,.24-.16,.4-.16s.4,.16,.48,.32c.08,.08,.08,.24,.08,.32,0,.16-.08,.32-.32,.48-4.16,2.88-9.29,7.05-13.85,7.05-2.64,0-5.04-1.36-7.12-4.96-.32-.56-.64-1.04-.88-1.44-.32-.48-.72-.72-1.2-.72-.4,0-.88,.16-1.52,.64-1.44,1.04-9.77,7.21-14.01,7.21h-.24Z" style="fill:#fff; stroke:#fff; stroke-miterlimit:10; stroke-width:2px;"/><path d="M741.11,80.32c-1.84,0-2.72-1.28-2.72-3.04,0-4,4.4-10.49,10.89-10.49h.16c1.92,0,3.44,1.04,3.76,4.08,4.08-4.24,7.85-9.13,11.21-14.01,2.8-4.88,6.08-9.53,8.73-12.73,.16-.16,.32-.24,.48-.24s.32,.08,.4,.16c.16,.08,.32,.32,.32,.48s-.08,.32-.16,.4c-2.8,3.76-4.8,6.81-6.73,9.61-.64,1.04-1.28,2-2,3.04-1.28,2.24-7.12,12.49-7.12,18.09,0,1.92,.64,3.36,2.48,3.68,.32,.08,.64,.08,.96,.08,5.36,0,15.21-6.97,16.97-8.25,.08-.08,.24-.08,.32-.08,.24,0,.48,.08,.64,.24,0,.08,.08,.08,.08,.16,0,.24-.32,.48-.48,.64-2.4,1.52-12.17,8.17-18.01,8.17h-.64c-2.72-.32-3.6-2.24-3.6-4.64,0-3.68,2.08-8.57,3.04-10.73-3.92,4.96-9.77,11.69-15.37,14.33-1.44,.72-2.64,1.04-3.6,1.04Zm8.01-12.25c-5.04,0-9.53,6.41-9.53,9.53,0,1.04,.48,1.76,1.6,1.76,.64,0,1.52-.24,2.64-.8,3.04-1.44,6.33-4.56,8.73-6.97-.4,0-.72-.24-.72-.64-.24-2.08-1.2-2.88-2.56-2.88h-.16Z" style="fill:#fff; stroke:#fff; stroke-miterlimit:10; stroke-width:2px;"/><path d="M777.06,79.92c-1.68-.08-2.32-.88-2.32-2.08,0-3.28,5.44-9.53,10.09-10.73v-.08c.8-.16,1.52-.24,2.16-.24,.4,0,.72,0,1.04,.08,1.04,.24,1.84,.64,2.24,1.36,.32,.48,.48,1.12,.48,1.76,0,.32-.24,.64-.56,.64h-.16c-.4,0-.64-.32-.64-.64,0-.4-.08-.72-.24-1.04-.24-.4-.72-.64-1.36-.72-.32-.08-.64-.08-.96-.08-.48,0-1.04,.08-1.6,.24h-.08c-3.6,.88-8.97,6.8-8.97,9.37,0,.64,.24,1.04,.88,1.2,.16,.08,.32,.08,.56,.08,3.36,0,12.17-6.41,13.13-7.13,1.12-.8,1.84-1.12,2.48-1.12,.72,0,1.28,.4,1.84,1.2,.32,.48,.64,1.04,.96,1.6,1.76,3.36,3.92,4.56,6.24,4.56,4.32,0,9.21-4.24,12.97-6.97,.16-.08,.24-.16,.4-.16s.4,.16,.48,.32c.08,.08,.08,.24,.08,.32,0,.16-.08,.32-.32,.48-4.16,2.88-9.29,7.05-13.85,7.05-2.64,0-5.04-1.36-7.12-4.96-.32-.56-.64-1.04-.88-1.44-.32-.48-.72-.72-1.2-.72-.4,0-.88,.16-1.52,.64-1.44,1.04-9.77,7.21-14.01,7.21h-.24Z" style="fill:#fff; stroke:#fff; stroke-miterlimit:10; stroke-width:2px;"/><path d="M808.76,80.48v-.32c.24-1.2,3.44-2.08,7.61-3.2l.56-.16c-.24-.96-.64-2-.96-3.04-.56-1.36-1.04-2.72-1.04-3.84,0-.32,.24-.8,.48-1.12s.56-.56,1.04-.64c.32,0,.64,.24,.72,.64,0,.32-.24,.64-.64,.72l-.08,.08-.16,.32c0,.88,.4,2.08,.88,3.44,.4,1.04,.8,2.08,1.04,3.12,4.64-1.28,10.25-2.88,14.17-5.28,.08-.08,.16-.08,.32-.08,.24,0,.48,.08,.56,.32,0,.08,.08,.08,.08,.16,0,.16-.24,.4-.48,.56-4.08,2.48-9.69,4.4-14.49,5.68,0,.4-.08,.88-.16,1.28-.24,.96-1.04,1.76-2,2.24-1.04,.56-2.4,.8-3.6,.8h-.64c-.56,0-.96,0-1.28-.08-.56-.08-1.04-.24-1.28-.48-.4-.32-.64-.72-.64-1.12Zm1.44,0c.08,.16,.32,.24,.72,.32s.96,.08,1.6,.08c1.12-.08,2.24-.24,3.12-.72,.64-.32,1.12-.8,1.28-1.36,.08-.16,.08-.4,.08-.64l-.24,.08c-3.76,1.04-6.57,1.76-6.65,2.16q0,.08,.08,.08Z" style="fill:#fff; stroke:#fff; stroke-miterlimit:10; stroke-width:2px;"/></g><g><g><path d="M3.99,68.95c6.31-8.6,13.35-16.83,21.66-23.58,2.94-2.39,6.08-4.57,9.39-6.43,1.46-.82,2.95-1.57,4.48-2.24,.62-.27,1.07-.46,1.88-.77,.67-.26,1.35-.5,2.03-.72,1.31-.43,2.64-.79,3.99-1.09,.61-.13,1.23-.25,1.84-.36,.29-.05,.58-.09,.87-.14,.41-.06-.15,.02,.19-.03,.15-.02,.3-.04,.45-.06,2.69-.31,5.4-.29,8.1-.13,9.56,.58,19.06,2.79,28.35,5.19,12.03,3.1,24.82,6.23,37.2,3.18,4.51-1.11,9.1-3.47,12.08-7.11,1.44-1.76,2.54-3.81,2.89-6.07,.38-2.49-.04-4.96-1.22-7.19-2.55-4.83-7.8-7.39-13.09-7.73-5.55-.35-11.18,1.44-16.08,3.94-9.2,4.69-16.39,12.67-21.8,21.32-6.32,10.1-10.31,21.43-14.8,32.4-4.09,10.01-8.74,20.02-15.76,28.35-3.28,3.89-7.03,7.41-11.34,10.14-3.54,2.25-8,4.47-12.24,3.64-1.77-.35-3.32-1.25-4.08-2.99-.93-2.13-.2-4.74,1.14-6.52,1.51-2.01,3.92-3.25,6.24-4.05s4.5-1.21,6.83-1.4c8.81-.73,17.8,1.25,26.17,3.85,3.5,1.09,6.92,2.39,10.38,3.58,4.7,1.62,9.43,3.15,14.2,4.55s9.54,2.71,14.42,3.47c2.98,.46,6.03,.51,9.03,.4,7.4-.27,15.55-1.9,20.98-7.32,6.38-6.37,6.71-16.44,3.54-24.44-1.69-4.27-4.3-8.22-7.83-11.2-3.99-3.36-8.86-5.22-14.04-5.65-4.15-.34-8.38,.25-12.39,1.36-3.57,.99-7.07,2.39-10.26,4.29-3.44,2.06-6.55,4.68-9.2,7.69-.5,.56-.56,1.42,0,1.97,.51,.51,1.47,.57,1.97,0,2.7-3.06,5.85-5.69,9.4-7.7,2.97-1.68,6.21-2.89,9.51-3.75,3.96-1.03,8.07-1.5,12.17-.95,4.76,.64,9.15,2.81,12.52,6.24,5.84,5.95,8.94,15.41,6.56,23.5-1.08,3.68-3.44,6.76-6.59,8.81-3.11,2.03-6.61,3.11-10.31,3.75-4.16,.72-8.97,.86-13.4,.42-.13-.01-.26-.03-.39-.05-.33-.04,.02,0,.09,.01-.12-.02-.23-.03-.35-.05-.62-.09-1.24-.2-1.85-.31-2.23-.42-4.45-.94-6.65-1.5-8.98-2.29-17.8-5.25-26.52-8.4-6.95-2.51-14.21-4.34-21.56-5.15-4.76-.53-9.66-.58-14.35,.48-5.07,1.14-10.5,3.76-12.2,9.06-.77,2.39-.62,5.18,.83,7.29,1.25,1.82,3.16,3,5.32,3.41,4.65,.87,9.25-.91,13.19-3.25,8.96-5.32,15.72-13.65,20.87-22.58,5.82-10.08,9.64-21.13,14.1-31.84,4.19-10.05,9.08-19.98,16.5-28.08,3.36-3.66,7.16-6.92,11.48-9.4,4.49-2.59,9.68-4.52,14.91-4.61,4.96-.08,10.06,1.94,12.39,6.56,.96,1.89,1.15,4.09,.58,6.11-.55,1.97-1.78,3.66-3.25,5.05-3.52,3.34-8.24,4.91-12.95,5.62-6.06,.91-12.3,.42-18.31-.63-6.18-1.08-12.2-2.82-18.29-4.29-5.03-1.22-10.09-2.31-15.2-3.11-6.34-1-12.85-1.71-19.24-.76-5.87,.88-11.48,3.15-16.58,6.15-7.6,4.46-14.22,10.49-20.13,16.98-3.88,4.26-7.48,8.78-10.89,13.43-.45,.61-.1,1.55,.5,1.91,.71,.41,1.46,.11,1.91-.5h0Z" style="fill:#fff;"/><path d="M120.37,114.77c7.76,2.98,15.4,9.26,16.59,17.93,.56,4.06-.53,8.23-2.61,11.72-.29,.48-.6,.96-.92,1.41-.09,.13-.18,.25-.28,.38,.24-.32-.15,.18-.2,.24-.15,.18-.3,.36-.46,.54-1.16,1.32-2.46,2.45-3.84,3.39-6.43,4.39-14.61,5.76-22.3,5.58-8.22-.19-16.3-2.28-23.47-6.31-2.7-1.52-5.29-3.22-7.9-4.89-4.29-2.76-8.57-5.68-13.24-7.76-5.03-2.24-10.48-3.57-15.99-2.71-4.46,.69-9.11,3.3-10.95,7.6-1.86,4.34-.11,9.04,3.45,11.92,1.77,1.43,3.85,2.48,6.09,2.95,2.43,.51,4.99,.33,7.4-.2,4.95-1.07,9.27-3.91,13.03-7.2,3.4-2.97,6.57-6.21,9.58-9.57,6.39-7.13,12.14-14.83,17.54-22.73,4.45-6.49,8.65-13.15,12.67-19.92,.68-1.14,1.35-2.28,2.01-3.43,.9-1.55-1.5-2.96-2.41-1.41-3.5,6.02-7.15,11.97-10.97,17.8-5.08,7.75-10.44,15.32-16.33,22.47-2.95,3.59-6.04,7.07-9.32,10.36s-6.62,6.46-10.64,8.68c-3.91,2.16-8.88,3.54-13.26,2.07-3.57-1.2-7.05-4.44-6.85-8.45,.22-4.27,4.49-7.06,8.26-7.98,5.02-1.22,10.4,.01,15.04,2.05s8.91,4.93,13.18,7.67c2.62,1.69,5.23,3.4,7.94,4.94,7.29,4.13,15.4,6.38,23.77,6.78,7.97,.39,16.48-.84,23.47-4.9,6.15-3.58,10.42-9.55,11.29-16.68,1.11-9.14-4.77-17.21-12.2-21.87-2.03-1.27-4.2-2.3-6.44-3.16-.7-.27-1.53,.3-1.71,.97-.22,.79,.27,1.44,.97,1.71h0Z" style="fill:#fff;"/></g><path d="M84.4,168.81C37.86,168.81,0,130.94,0,84.4S37.86,0,84.4,0s84.4,37.86,84.4,84.4-37.86,84.4-84.4,84.4Zm0-166.37C39.2,2.43,2.43,39.2,2.43,84.4s36.77,81.97,81.97,81.97,81.97-36.77,81.97-81.97S129.6,2.43,84.4,2.43Z" style="fill:#fff;"/></g><text transform="translate(294.58 130.9)" style="fill:#fff; font-family:Montserrat-Thin, Montserrat; font-size:23px; font-variation-settings:&apos;wght&apos; 100;"><tspan x="0" y="0" style="letter-spacing:.1em;">CLÍNI</tspan><tspan x="72.77" y="0" style="letter-spacing:.08em;">C</tspan><tspan x="90.71" y="0" style="letter-spacing:.1em;">A GERAL E </tspan><tspan x="240.72" y="0" style="letter-spacing:.08em;">C</tspan><tspan x="258.66" y="0" style="letter-spacing:.1em;">ARDIO</tspan><tspan x="347.14" y="0" style="letter-spacing:.08em;">L</tspan><tspan x="362.41" y="0" style="letter-spacing:.1em;">OGIA</tspan></text></g></svg>